<?xml version="1.0" encoding="UTF-8"?><svg id="Calque_2" xmlns="http://www.w3.org/2000/svg" viewBox="0 0 53.65 52.88"><defs><style>.cls-1{fill:#f4ecde;}.cls-2{fill:#85735a;}.cls-3{fill:none;stroke:#85735a;stroke-miterlimit:10;stroke-width:1.14px;}</style></defs><g id="Calque_2-2"><ellipse class="cls-2" cx="26.82" cy="26.44" rx="26.82" ry="26.44"/><path class="cls-1" d="M5.66,18.71c2.83,8.25,5.67,16.5,8.5,24.74h27.34c2.89-8.25,5.77-16.5,8.66-24.75-14.84,0-29.67,0-44.51,0Z"/><path class="cls-1" d="M15.7,9.96v8.75h24.43V9.96c-1.01-.73-5.93-4.1-13.21-3.78-6.04,.26-10.03,2.91-11.23,3.78Z"/><line class="cls-3" x1="39.15" y1="26.31" x2="35.29" y2="36.74"/><line class="cls-3" x1="36.06" y1="27.98" x2="32.27" y2="39.55"/><path class="cls-2" d="M18.97,12.42v5.26h17.89v-5.26c-.74-.44-4.35-2.46-9.67-2.27-4.43,.16-7.34,1.75-8.22,2.27Z"/><line class="cls-3" x1="42.49" y1="23.52" x2="38.69" y2="35.1"/></g></svg>