<?xml version="1.0" encoding="UTF-8"?><svg id="Calque_2" xmlns="http://www.w3.org/2000/svg" viewBox="0 0 61.2 61.2"><defs><style>.cls-1{fill:#fff;}.cls-2{fill:#85735a;}</style></defs><g id="Calque_2-2"><circle class="cls-2" cx="30.6" cy="30.6" r="30.6"/><g><path class="cls-1" d="M27.79,35.84s0-.05-.01-.07c-.02-.02-.04-.04-.07-.05,0,0-.03,.02-.03,.03,.01,.03,.03,.05,.05,.07,.02,.01,.04,.01,.07,.02,.08,.08,.16,.2,.28,.19,.14-.01,.27,.04,.4,.05,.66,.05,1.31,.12,1.97,.14,1.12,.05,2.25,.08,3.37,.11,.71,.02,1.42,.03,2.12,.04,1.38,.02,2.76,.04,4.15,.05,.53,0,1.07-.02,1.6-.04,.25,0,.31-.08,.35-.33,0-.02,0-.05,.02-.08,.11,.04,.21,.07,.31,.1,.58,.21,1.08,.56,1.57,.91,.81,.57,1.49,1.28,2.18,1.99,.85,.87,1.6,1.83,2.3,2.83,.17,.24,.33,.5,.46,.77,.28,.56,.53,1.13,.8,1.69,.33,.69,.58,1.4,.77,2.13,.02,.06,.02,.13,.04,.21-.1,.01-.18,.03-.26,.03-.58,.01-1.17,.03-1.75,.02-.69,0-1.38-.04-2.07-.04-.91,0-1.82,.02-2.72,.03-1.22,0-2.43,0-3.65,.06-.91,.04-1.83,.04-2.75,.06-.77,.01-1.53,.04-2.3,.05-.42,0-.83-.03-1.25-.03-.82,0-1.65,0-2.47-.02-.69-.02-1.38-.07-2.07-.09-.7-.02-1.4-.02-2.1-.03-2.12-.02-4.23,.05-6.35,.17-.82,.05-1.63,.1-2.44,.16-.52,.03-1.05,.07-1.57,.1-.74,.04-1.48,.08-2.22,.11-.06,0-.12,0-.17,0-.46-.04-.91-.08-1.37-.11-.36-.02-.72,.03-1.07-.04-.09-.02-.2,.03-.31,.04,.06,.18,.16,.23,.32,.24,.45,.04,.89,.13,1.33,.15,.28,.01,.56,.14,.85,.05,.79,.12,1.58,.06,2.36,.05,.55,0,1.1-.06,1.64-.09,.73-.05,1.46-.1,2.19-.15,.51-.03,1.03-.05,1.54-.08,.6-.03,1.2-.06,1.8-.07,.54-.01,1.08,0,1.62,0,.94,0,1.88,0,2.82,0,.72,0,1.43,.03,2.15,.05,.4,.01,.8,.03,1.2,.04,.97,.02,1.95,.04,2.92,.05,.67,0,1.33,0,2,0,.69,0,1.38-.03,2.07-.04,.97-.02,1.95-.03,2.92-.05,.95-.02,1.9-.04,2.85-.04,.99,0,1.98-.02,2.97,.03,.94,.05,1.88,.02,2.82,0,.34,0,.68-.04,1.02-.06,.17-.01,.29-.16,.24-.3-.05-.14-.08-.3-.23-.34,.01-.09,.06-.18,.04-.26-.15-.53-.28-1.06-.48-1.57-.23-.59-.54-1.16-.8-1.75-.37-.83-.88-1.57-1.42-2.29-.24-.33-.5-.64-.76-.96-.43-.53-.86-1.06-1.38-1.51-.35-.31-.71-.63-1.05-.95-.44-.42-.94-.77-1.45-1.1-.87-.57-1.84-.92-2.78-1.34-.67-.3-1.37-.55-2.07-.81-.58-.22-1.17-.43-1.77-.61-.74-.23-1.48-.44-2.23-.64-.52-.14-1.05-.25-1.58-.36-.23-.05-.48-.05-.72-.07-.1,0-.17-.03-.17-.16,0-.59-.02-1.18-.01-1.77,0-.89,.03-1.78,.04-2.67,0-.04,.03-.07,.04-.11,.05,0,.09-.01,.13-.01,.36,.03,.71-.01,1.06-.13,.05-.02,.1-.02,.15-.03,.7-.13,1.4-.3,2.07-.54,.87-.31,1.66-.77,2.44-1.25,.42-.26,.82-.56,1.23-.85,.34-.24,.68-.48,1-.74,.57-.46,1.14-.92,1.68-1.42,.51-.47,1-.98,1.48-1.48,.37-.39,.68-.81,1-1.24,.51-.7,.92-1.45,1.31-2.21,.29-.56,.52-1.15,.76-1.74,.22-.55,.44-1.1,.57-1.68,.08-.36,.21-.7,.31-1.05,.08-.27,.15-.55,.21-.82,.02-.08-.03-.2,.01-.23,.21-.18,.07-.34-.01-.51-.06-.12-.13-.15-.28-.13-1.12,.15-2.21,.4-3.3,.66-.66,.15-1.31,.32-1.94,.55-.88,.32-1.72,.71-2.59,1.04-1.02,.4-2.02,.87-3,1.36-.3,.15-.59,.31-.86,.51-.67,.5-1.32,1.01-1.93,1.58-.4,.38-.79,.76-1.17,1.16-.5,.52-1,1.03-1.41,1.62-.2,.29-.4,.57-.59,.86-.17,.27-.33,.56-.5,.83-.03,.06-.1,.1-.16,.16-.13-.2-.23-.37-.35-.53-.78-1.02-1.54-2.05-2.45-2.96-.54-.54-1.12-1.04-1.74-1.49-.52-.38-1.04-.75-1.57-1.11-.43-.29-.87-.55-1.32-.81-.56-.32-1.15-.6-1.71-.93-.83-.49-1.68-.92-2.59-1.22-.47-.15-.93-.32-1.39-.47-.85-.27-1.74-.38-2.6-.59-.4-.09-.81-.11-1.22-.09-.37,.01-.75,.03-1.12,.05-.26,.01-.53,.03-.79,.06-.26,.03-.41,.22-.36,.49,.09,.52,.17,1.05,.31,1.57,.13,.51,.32,1,.5,1.49,.2,.55,.38,1.1,.62,1.63,.46,1.01,.96,2.01,1.45,3.02,.12,.25,.26,.49,.43,.7,.39,.52,.8,1.02,1.21,1.53,.84,1.04,1.8,1.97,2.81,2.84,.35,.3,.75,.56,1.12,.84,.52,.4,1.08,.75,1.67,1.05,.36,.18,.73,.32,1.09,.49,.91,.42,1.83,.79,2.8,1.06,.44,.12,.88,.26,1.33,.32,.84,.11,1.68,.07,2.51-.1,.08-.02,.16-.02,.26-.04,0,.11,.02,.19,.02,.27,0,.59-.02,1.18-.03,1.77,0,.39,0,.78,0,1.17,0,.09-.02,.22-.09,.27-.12,.11-.27,.21-.42,.26-.33,.1-.66,.16-1,.23-.3,.06-.61,.08-.91,.16-.39,.1-.78,.23-1.17,.35-.86,.26-1.72,.52-2.58,.79-1.12,.36-2.24,.76-3.31,1.27-.8,.38-1.59,.77-2.26,1.37-.4,.36-.83,.7-1.2,1.09-.58,.61-1.13,1.24-1.67,1.88-.44,.52-.87,1.05-1.29,1.59-.42,.55-.77,1.15-1.08,1.76-.26,.52-.52,1.04-.74,1.58-.21,.52-.38,1.07-.56,1.6-.07,.2-.12,.42-.16,.63-.03,.14,.04,.22,.18,.23,.11,.01,.23,.02,.33,.03,.11-.37,.2-.73,.32-1.08,.35-1.03,.72-2.06,1.26-3.01,.42-.72,.85-1.43,1.39-2.07,.76-.9,1.53-1.79,2.31-2.66,.35-.39,.74-.74,1.13-1.09,.53-.47,1.12-.87,1.77-1.16,.49-.22,.98-.46,1.48-.66,.38-.16,.78-.28,1.18-.42,.7-.25,1.39-.51,2.1-.73,.81-.26,1.63-.5,2.44-.74,.26-.08,.53-.15,.8-.17,.53-.04,1.03-.21,1.54-.32,.05,0,.1-.03,.14-.06,.18-.14,.36-.29,.54-.44,.02-.02,.04-.04,.04-.06,.05-.18,.12-.35,.13-.53,.02-.31,0-.62,0-.92,0-.56,.01-1.12,.02-1.67,0-.28,0-.55,0-.83-.01-.4-.14-.49-.52-.4-.15,.04-.31,.07-.46,.11-.61,.17-1.23,.2-1.86,.16-.27-.02-.55-.04-.82-.09-1.03-.23-2.02-.55-2.99-.97-.36-.16-.72-.32-1.07-.48-.28-.13-.57-.24-.84-.39-.6-.32-1.16-.72-1.71-1.12-.78-.56-1.49-1.21-2.16-1.89-.6-.62-1.19-1.26-1.74-1.93-.42-.51-.86-1.02-1.16-1.63-.51-1.01-1.01-2.03-1.51-3.05-.15-.3-.26-.61-.38-.92-.15-.39-.31-.77-.43-1.17-.19-.62-.35-1.25-.52-1.88-.04-.13-.05-.27-.09-.44l.36,.02c-.03,.29,.17,.44,.34,.59,.5,.46,1.01,.92,1.52,1.37,.73,.62,1.46,1.24,2.17,1.88,1.03,.93,2.09,1.82,3.13,2.72,.08,.07,.18,.13,.27,.17,.09,.05,.18,.02,.25-.06,.11-.13,.13-.3,.02-.44-.09-.11-.19-.21-.3-.3-.73-.64-1.47-1.28-2.2-1.93-.89-.78-1.74-1.61-2.68-2.33-.58-.45-1.13-.93-1.7-1.4-.09-.07-.16-.15-.28-.26,.58-.04,1.11-.11,1.64,0,.6,.12,1.19,.23,1.79,.36,1.02,.22,2.01,.55,2.98,.93,.11,.04,.21,.09,.32,.14,.91,.41,1.77,.93,2.64,1.42,.76,.43,1.53,.84,2.24,1.36,.79,.58,1.62,1.11,2.35,1.77,.26,.24,.53,.47,.76,.73,.5,.56,.97,1.14,1.45,1.71,.41,.49,.8,1,1.13,1.55,.11,.19,.24,.38,.36,.57,.13,.19,.28,.22,.46,.08,.09-.07,.11-.16,.11-.27,0-.1,0-.21,.03-.29,.11-.23,.23-.47,.37-.68,.6-.89,1.23-1.76,1.98-2.54,.96-1,1.95-1.96,3.05-2.8,.29-.22,.61-.41,.93-.59,.31-.17,.63-.3,.95-.45,.23-.11,.44-.23,.67-.33,.86-.37,1.72-.73,2.58-1.09,1.12-.47,2.26-.86,3.45-1.1,.7-.14,1.4-.3,2.1-.44,.07-.02,.15-.01,.23-.02l.02,.06c-.18,.16-.37,.33-.55,.49-.49,.44-.98,.88-1.47,1.32-.65,.58-1.31,1.16-1.95,1.75-.17,.15-.3,.33-.45,.5-.09,.1-.03,.19,.03,.27,.07,.08,.15,.07,.22,.02,.13-.08,.25-.17,.36-.26,.18-.16,.35-.33,.53-.49,1.02-.88,2.04-1.77,3.06-2.65,.04-.03,.09-.05,.18-.11-.13,.44-.23,.84-.35,1.22-.24,.76-.56,1.5-.87,2.23-.36,.85-.8,1.67-1.3,2.45-.81,1.26-1.84,2.33-2.95,3.31-.99,.87-2.03,1.68-3.12,2.41-1.01,.68-2.08,1.26-3.26,1.62-.08,.02-.16,.04-.24,.06l-.02-.06c.49-.37,.97-.76,1.46-1.12,.49-.36,1-.71,1.5-1.07-.04-.09-.08-.14-.1-.2-.03-.11-.1-.17-.22-.15-.09,.01-.18,0-.26,.05-.19,.09-.38,.17-.55,.3-.81,.58-1.61,1.18-2.42,1.77-.35,.26-.7,.51-1.05,.77-.18,.14-.38,.12-.63,.07,.08-.07,.14-.12,.19-.16,.84-.65,1.67-1.3,2.51-1.95,.43-.34,.86-.68,1.3-1.02,.59-.46,1.18-.92,1.77-1.38,.03-.02,.05-.04,.07-.07,.13-.16,.09-.35-.1-.43-.12-.05-.24-.06-.35,.03-.12,.09-.25,.16-.37,.25-.35,.26-.69,.52-1.04,.78-.43,.33-.86,.66-1.29,.99-.39,.31-.78,.63-1.18,.93-.77,.57-1.55,1.13-2.32,1.69-.21,.15-.24,.33-.06,.5,.1,.1,.15,.22,.15,.36,0,.44-.03,.88-.03,1.32,0,.97,0,1.95,.01,2.92,0,.17,0,.35,.02,.52,.03,.33,.27,.57,.59,.6,.16,.01,.32,.03,.47,.06,.8,.14,1.58,.33,2.35,.6,.58,.2,1.18,.35,1.77,.52,.05,.02,.1,.05,.15,.07-.37,.02-.73,0-1.09,0-.69-.03-1.38-.09-2.07-.09-1.02,0-2.05,.02-3.07,.05-.44,.02-.87,.11-1.31,.16,0,.07,0,.12-.01,.17-.03,.21,.04,.32,.25,.33,.5,.01,1,.01,1.49,.01,.47,0,.95-.01,1.42,0,.99,.03,1.98,.06,2.97,.1,.83,.03,1.66,.06,2.5,.08,.25,0,.51,.03,.76-.08,.08-.03,.2-.01,.29,.02,.71,.29,1.41,.59,2.12,.89,.05,.02,.09,.05,.18,.11-.14,0-.21,.01-.28,.01-.63,0-1.27,0-1.9,0-.62,0-1.23-.04-1.85-.05-1.15-.02-2.3-.04-3.45-.06-1.07-.02-2.13-.04-3.2-.07-.4-.01-.8-.07-1.2-.07-.43,0-.86,.05-1.3,.04-.27,0-.46,.1-.61,.29Zm3.79-9.76s.15-.05,.25-.1c.09-.05,.16-.12,.24-.18,.83-.73,1.66-1.47,2.5-2.19,.77-.66,1.54-1.3,2.33-1.93,.73-.58,1.48-1.13,2.21-1.71,.54-.43,1.07-.88,1.6-1.32,.2-.17,.4-.33,.58-.51,.16-.15,.17-.29,.07-.42-.11-.14-.27-.17-.45-.07-.09,.05-.17,.11-.25,.17-.35,.27-.69,.55-1.04,.82-.61,.48-1.22,.96-1.83,1.43-.67,.53-1.35,1.06-2.02,1.6-.7,.57-1.39,1.15-2.07,1.73-.56,.48-1.12,.98-1.68,1.46-.23,.2-.47,.4-.7,.6-.12,.1-.19,.21-.14,.37,.04,.14,.19,.25,.39,.25Zm-10.54-6.61c-.26,.32-.26,.37,0,.63,.21,.21,.42,.41,.64,.6,.35,.3,.72,.56,1.06,.87,.6,.55,1.25,1.05,1.91,1.52,.75,.54,1.49,1.09,2.26,1.6,.93,.62,1.88,1.2,2.82,1.8,.01,0,.03,.02,.04,.02,.15,.08,.29,.06,.38-.06,.1-.13,.1-.29,0-.41-.05-.06-.11-.1-.17-.14-.42-.27-.85-.53-1.27-.79-.43-.27-.87-.53-1.28-.82-.77-.54-1.53-1.1-2.29-1.65-.58-.42-1.16-.83-1.71-1.3-.67-.57-1.35-1.1-2.04-1.65-.1-.08-.22-.14-.34-.22Zm23.26,21.58c.35,0,.92-.02,1.48-.04,.24-.01,.48-.06,.69-.19,.1-.06,.12-.15,.03-.21-.14-.1-.26-.26-.48-.18-.05,.02-.12,0-.17,0-.35,0-.7,0-1.05,0-.53-.02-1.06-.04-1.59-.06-.7-.03-1.39-.08-2.09-.11-.56-.02-1.11-.02-1.67-.03-.82-.01-1.65,.01-2.47,.12-.27,.04-.54,.1-.8,.17-.2,.05-.24,.18-.13,.33,.05,.07,.17,.11,.26,.11,.31,0,.61,0,.92-.01,.3,0,.6-.03,.9-.03,.93,0,1.86,.02,2.8,.04,.52,0,1.05,.02,1.57,.03,.53,.01,1.06,.03,1.81,.06Zm-26.71-.43c.2,.13,.4,.2,.63,.2,.57,0,1.15,.03,1.72,.05,.72,.03,1.45,.09,2.17,.1,1.19,.02,2.38,0,3.57,0,.22,0,.45-.02,.67-.04,.13,0,.24-.05,.29-.19,.08-.22-.05-.43-.28-.44-.41-.02-.82-.04-1.22-.04-.51,0-1.02,.01-1.52,0-.76-.01-1.51-.04-2.27-.06-.15,0-.3,0-.45,0-1.06-.04-2.11-.04-3.19,.09,.11,.16-.05,.22-.11,.32Zm9.33-1.28c-.04-.07-.1-.14-.12-.22-.03-.11-.1-.15-.2-.15-.07,0-.13,0-.2,0-.52,0-1.03,.02-1.55,.02-1.18-.01-2.36-.03-3.55-.05-.72,0-1.43-.01-2.15,0-.46,0-.93-.03-1.37,.16,0,.06,0,.11,0,.17,.01,.19,.01,.19,.21,.24,.05,.01,.09,.02,.14,.03,.5,.03,1,.07,1.49,.08,.8,.02,1.6,.04,2.4,.05,1.01,0,2.02,.02,3.02,0,.52,0,1.05-.07,1.57-.1,.14,0,.23-.07,.29-.23Zm-10.4-18.36c.09,.16,.15,.32,.25,.46,.18,.26,.38,.5,.58,.75,.6,.73,1.3,1.36,2.08,1.89,.71,.49,1.46,.9,2.22,1.29,.72,.37,1.47,.66,2.25,.89,.38,.11,.77,.2,1.16,.28,.21,.04,.31-.03,.43-.25-.09-.12-.18-.23-.35-.26-.12-.02-.24-.06-.36-.1-.62-.2-1.24-.38-1.84-.62-1.28-.53-2.48-1.21-3.6-2.03-.83-.61-1.55-1.34-2.2-2.12-.11-.14-.21-.3-.42-.35l-.2,.18Zm27.28,24.31l-.28-.02c-.14-.01-.28-.04-.42-.03-.51,.03-1.03,.08-1.54,.1-1.21,.05-2.43,.08-3.64,.14-.61,.03-1.21,.06-1.82,.12-.25,.02-.5,.12-.75,.18-.12,.03-.15,.12-.12,.23,.03,.14,.08,.19,.24,.19,.19,0,.38-.01,.57-.02,.79-.01,1.58-.01,2.37-.03,.72-.02,1.45-.03,2.17-.08,.74-.05,1.47-.15,2.21-.22,.28-.02,.53-.15,.81-.18,.02,0,.16-.04,.12-.17-.02-.06,.05-.15,.08-.22ZM23.27,24.42c-.1-.21-.25-.3-.43-.38-.62-.26-1.22-.54-1.77-.92-.25-.17-.5-.33-.74-.51-.61-.45-1.23-.89-1.8-1.38-.61-.52-1.18-1.1-1.77-1.66-.13-.12-.24-.25-.37-.37-.27-.24-.54-.47-.82-.72l-.12,.21c.04,.07,.1,.14,.09,.16-.08,.13,.03,.19,.08,.25,.5,.54,1.01,1.08,1.52,1.61,.53,.55,1.11,1.06,1.71,1.54,.77,.61,1.56,1.2,2.42,1.68,.46,.26,.93,.48,1.44,.62,.1,.03,.2,.05,.33,.07l.22-.21Zm12.94,20.5c.13,.1,.26,.07,.39,.07,.39-.01,.78-.04,1.17-.04,1.46-.02,2.93-.03,4.39-.05,.38,0,.76-.03,1.15-.07,.17-.02,.34-.07,.51-.11,.17-.04,.1-.21,.15-.31,.02-.04-.05-.17-.11-.19-.11-.05-.24-.09-.36-.09-.63,.01-1.26,.05-1.9,.07-1.34,.04-2.68,.06-4.02,.12-.47,.02-.97,.03-1.4,.29l.02,.33Zm8.96-5.42c-.09-.11-.22-.15-.37-.16-.47-.02-.93-.05-1.4-.06-.62-.02-1.25-.03-1.87-.03-.69,0-1.38,0-2.07,.01-.57,.01-1.13,.05-1.7,.08-.32,.02-.39,.08-.47,.38,0,.01,0,.03,0,.04,.35,.13,.72,.13,1.08,.14,.87,.03,1.73,.04,2.6,.05,.81,0,1.62,.01,2.42,.02,.42,0,.85,0,1.27,0,.42,0,.43-.02,.52-.43,0,0,0-.02,0-.04ZM26.61,19.1c-.04-.27-.03-.28-.23-.46-.34-.3-.69-.6-1.04-.89-.55-.45-1.12-.89-1.73-1.27-.75-.47-1.51-.91-2.24-1.4-.68-.45-1.39-.79-2.18-.98-.07,.26-.06,.3,.1,.39,.26,.15,.53,.29,.78,.44,.33,.2,.64,.41,.96,.62,.54,.35,1.06,.73,1.61,1.04,.78,.44,1.5,.95,2.21,1.49,.44,.34,.88,.68,1.33,1.02,.2,.15,.22,.14,.43,0Zm7.98,.36c.07-.22,.22-.33,.38-.43,.02-.01,.04-.03,.06-.05,.39-.37,.76-.74,1.16-1.09,.94-.83,1.93-1.61,3.02-2.25,.65-.38,1.28-.77,1.98-1.06,.18-.07,.35-.16,.52-.25,.11-.06,.16-.19,.12-.3-.04-.12-.17-.21-.29-.19-.09,.01-.18,.05-.26,.09-.15,.07-.3,.15-.45,.22-.87,.38-1.67,.87-2.45,1.39-.62,.41-1.2,.87-1.77,1.33-.36,.29-.71,.6-1.04,.93-.32,.31-.59,.67-.9,.99-.12,.12-.18,.28-.29,.38-.11,.1-.13,.2-.1,.32-.08,.03-.22-.01-.16,.17l.35-.13-.07-.22,.21,.15ZM14.1,43.46c.13,0,.23-.04,.31-.01,.35,.09,.7,.04,1.04,.03,.81-.02,1.61-.06,2.42-.09,1.04-.05,2.08-.11,3.12-.16,.08,0,.17-.02,.24-.05,.11-.04,.18-.12,.2-.24,.01-.11-.03-.2-.13-.27-.1-.07-.2-.11-.32-.11-.19,.01-.38,.02-.57,.03-.52,.03-1.05,.05-1.57,.07-.56,.02-1.12,.04-1.67,.07-.57,.03-1.15,.07-1.72,.12-.25,.02-.49,.08-.74,.1-.2,.02-.37,.08-.49,.25l.06,.11s-.06,.04-.08,.06c-.02,.02-.04,.04-.1,.09Zm7.89,.95c-.01-.06-.03-.11-.03-.16-.02-.16-.1-.26-.25-.28-.06-.01-.12,0-.17,0-.46,.02-.93,.05-1.39,.07-.92,.04-1.84,.07-2.77,.11-.36,.02-.71,.03-1.07,.06-.26,.03-.52,.08-.78,.13-.11,.02-.24,.18-.24,.26,.01,.14,.05,.17,.26,.19,.2,.01,.4,.03,.59,.03,1.01-.02,2.03-.04,3.04-.09,.77-.03,1.54-.09,2.31-.15,.17-.01,.35-.03,.49-.17Zm4.02-24.52c0-.19-.09-.3-.21-.4-.33-.29-.66-.59-1-.87-1.09-.93-2.22-1.8-3.45-2.55-.06-.03-.12-.05-.18-.08-.11-.05-.25,.01-.35-.08-.02-.01-.12,.05-.16,.09-.02,.02,0,.1,.02,.13,.02,.04,.07,.07,.11,.1,.28,.21,.56,.41,.84,.62,.58,.44,1.16,.89,1.74,1.34,.71,.56,1.42,1.12,2.14,1.69,.08,.07,.17,.12,.26,.18l.24-.17Zm13.43-3.6c-.07,.03-.16,.05-.23,.1-.48,.31-.96,.63-1.4,.99-1.07,.87-2.14,1.72-3.21,2.58-.06,.05-.11,.13-.12,.2-.03,.2,.17,.33,.37,.24,.14-.06,.26-.14,.38-.24,.76-.62,1.52-1.25,2.28-1.87,.55-.45,1.1-.89,1.65-1.34,.17-.14,.32-.3,.47-.45l-.19-.22Zm-9.82,10.83c.02-.13-.08-.21-.22-.28-.98-.45-1.94-.95-2.88-1.5-.22-.13-.44-.27-.67-.38-.15-.08-.25-.04-.34,.1-.08,.12-.08,.16,.08,.29,.28,.22,.57,.43,.87,.62,.75,.46,1.51,.91,2.33,1.26,.17,.07,.34,.15,.51,.19,.19,.05,.31-.06,.31-.29ZM11.22,47.08l.02,.05s.06,0,.08-.02c.02-.02,.03-.06,.06-.13l-.15,.1Zm.28,.04l-.05,.03,.07,.09,.03-.02-.05-.1Zm24.45-6.29s-.02-.04-.03-.04c-.02,0-.04,.01-.06,.02,0,.01,.02,.03,.02,.03,.02,0,.04-.01,.06-.02Z"/><path class="cls-1" d="M27.79,35.84c.16-.2,.34-.3,.61-.29,.43,0,.86-.05,1.3-.04,.4,0,.8,.06,1.2,.07,1.07,.03,2.13,.05,3.2,.07,1.15,.02,2.3,.04,3.45,.06,.62,.01,1.23,.04,1.85,.05,.63,0,1.27,0,1.9,0,.07,0,.15,0,.28-.01-.1-.06-.14-.09-.18-.11-.7-.3-1.41-.6-2.12-.89-.09-.04-.21-.06-.29-.02-.25,.11-.51,.08-.76,.08-.83-.02-1.67-.05-2.5-.08-.99-.03-1.98-.07-2.97-.1-.47-.01-.95,0-1.42,0-.5,0-1,0-1.49-.01-.21,0-.28-.12-.25-.33,0-.05,0-.1,.01-.17,.43-.06,.87-.15,1.31-.16,1.02-.04,2.05-.06,3.07-.05,.69,0,1.38,.06,2.07,.09,.36,.02,.71,.02,1.09,0-.05-.02-.1-.05-.15-.07-.59-.17-1.19-.32-1.77-.52-.77-.27-1.55-.46-2.35-.6-.16-.03-.31-.05-.47-.06-.32-.03-.56-.27-.59-.6-.01-.17-.02-.35-.02-.52,0-.97-.01-1.95-.01-2.92,0-.44,.02-.88,.03-1.32,0-.14-.05-.25-.15-.36-.17-.18-.14-.35,.06-.5,.77-.56,1.55-1.12,2.32-1.69,.4-.3,.78-.62,1.18-.93,.43-.33,.86-.66,1.29-.99,.34-.26,.69-.52,1.04-.78,.12-.09,.25-.16,.37-.25,.12-.09,.23-.08,.35-.03,.19,.07,.23,.27,.1,.43-.02,.03-.05,.05-.07,.07-.59,.46-1.18,.92-1.77,1.38-.43,.34-.86,.68-1.3,1.02-.83,.65-1.67,1.3-2.51,1.95-.06,.04-.11,.09-.19,.16,.25,.05,.44,.06,.63-.07,.35-.26,.7-.52,1.05-.77,.81-.59,1.61-1.19,2.42-1.77,.17-.12,.36-.21,.55-.3,.08-.04,.17-.03,.26-.05,.12-.02,.19,.04,.22,.15,.02,.06,.05,.11,.1,.2-.5,.36-1.01,.7-1.5,1.07-.49,.36-.97,.75-1.46,1.12l.02,.06c.08-.02,.16-.03,.24-.06,1.18-.36,2.24-.94,3.26-1.62,1.09-.74,2.14-1.54,3.12-2.41,1.11-.99,2.14-2.05,2.95-3.31,.5-.78,.93-1.59,1.3-2.45,.31-.74,.63-1.47,.87-2.23,.12-.39,.23-.78,.35-1.22-.09,.06-.14,.08-.18,.11-1.02,.88-2.04,1.76-3.06,2.65-.18,.16-.35,.33-.53,.49-.11,.1-.24,.18-.36,.26-.07,.05-.16,.06-.22-.02-.07-.08-.12-.17-.03-.27,.15-.17,.29-.35,.45-.5,.65-.59,1.3-1.17,1.95-1.75,.49-.44,.98-.88,1.47-1.32,.18-.16,.37-.33,.55-.49l-.02-.06c-.08,0-.15,0-.23,.02-.7,.15-1.4,.3-2.1,.44-1.19,.24-2.33,.63-3.45,1.1-.86,.36-1.72,.72-2.58,1.09-.23,.1-.45,.22-.67,.33-.32,.15-.64,.28-.95,.45-.32,.18-.64,.37-.93,.59-1.1,.84-2.1,1.8-3.05,2.8-.75,.78-1.38,1.65-1.98,2.54-.14,.21-.26,.45-.37,.68-.04,.08-.03,.19-.03,.29,0,.1-.02,.2-.11,.27-.18,.14-.34,.12-.46-.08-.12-.19-.25-.38-.36-.57-.33-.55-.72-1.06-1.13-1.55-.48-.58-.96-1.15-1.45-1.71-.23-.26-.5-.49-.76-.73-.73-.66-1.56-1.19-2.35-1.77-.71-.52-1.48-.93-2.24-1.36-.87-.49-1.73-1-2.64-1.42-.11-.05-.21-.1-.32-.14-.97-.38-1.96-.71-2.98-.93-.59-.13-1.19-.25-1.79-.36-.53-.1-1.06-.03-1.64,0,.12,.11,.2,.19,.28,.26,.56,.47,1.12,.95,1.7,1.4,.94,.72,1.79,1.55,2.68,2.33,.73,.65,1.47,1.28,2.2,1.93,.11,.09,.21,.19,.3,.3,.11,.14,.09,.31-.02,.44-.07,.08-.15,.11-.25,.06-.09-.05-.19-.1-.27-.17-1.05-.9-2.11-1.79-3.13-2.72-.71-.64-1.45-1.25-2.17-1.88-.52-.45-1.02-.91-1.52-1.37-.17-.16-.37-.3-.34-.59l-.36-.02c.03,.17,.05,.3,.09,.44,.17,.63,.33,1.26,.52,1.88,.12,.4,.28,.78,.43,1.17,.12,.31,.23,.62,.38,.92,.5,1.02,1,2.03,1.51,3.05,.3,.6,.73,1.11,1.16,1.63,.55,.67,1.14,1.31,1.74,1.93,.67,.69,1.37,1.33,2.16,1.89,.56,.4,1.11,.8,1.71,1.12,.27,.15,.56,.26,.84,.39,.36,.16,.71,.32,1.07,.48,.96,.42,1.96,.75,2.99,.97,.27,.06,.54,.08,.82,.09,.63,.04,1.25,.01,1.86-.16,.15-.04,.31-.07,.46-.11,.38-.09,.51,0,.52,.4,0,.27,0,.55,0,.83,0,.56-.01,1.12-.02,1.67,0,.31,.01,.62,0,.92-.01,.18-.08,.35-.13,.53,0,.02-.02,.05-.04,.06-.18,.15-.35,.3-.54,.44-.04,.03-.09,.05-.14,.06-.51,.11-1.01,.28-1.54,.32-.27,.02-.54,.1-.8,.17-.82,.24-1.63,.47-2.44,.74-.71,.23-1.4,.49-2.1,.73-.39,.14-.79,.26-1.18,.42-.5,.21-.99,.44-1.48,.66-.65,.29-1.24,.69-1.77,1.16-.39,.35-.78,.7-1.13,1.09-.79,.87-1.56,1.76-2.31,2.66-.54,.64-.97,1.35-1.39,2.07-.55,.95-.92,1.98-1.26,3.01-.12,.35-.21,.71-.32,1.08-.1,0-.22-.02-.33-.03-.14-.02-.21-.09-.18-.23,.04-.21,.09-.42,.16-.63,.18-.54,.34-1.08,.56-1.6,.22-.54,.48-1.06,.74-1.58,.31-.62,.66-1.21,1.08-1.76,.42-.54,.84-1.08,1.29-1.59,.54-.64,1.1-1.28,1.67-1.88,.37-.39,.8-.73,1.2-1.09,.67-.6,1.46-.99,2.26-1.37,1.07-.5,2.18-.9,3.31-1.27,.85-.28,1.72-.53,2.58-.79,.39-.12,.78-.25,1.17-.35,.3-.07,.61-.1,.91-.16,.33-.07,.67-.13,1-.23,.15-.05,.3-.15,.42-.26,.06-.06,.09-.18,.09-.27,0-.39,0-.78,0-1.17,0-.59,.02-1.18,.03-1.77,0-.08-.01-.16-.02-.27-.1,.01-.18,.02-.26,.04-.83,.18-1.67,.21-2.51,.1-.45-.06-.89-.2-1.33-.32-.96-.27-1.89-.64-2.8-1.06-.36-.17-.74-.31-1.09-.49-.59-.3-1.14-.65-1.67-1.05-.37-.28-.77-.54-1.12-.84-1.01-.87-1.96-1.8-2.81-2.84-.41-.5-.81-1.01-1.21-1.53-.16-.22-.31-.46-.43-.7-.49-1-.99-2-1.45-3.02-.24-.53-.42-1.08-.62-1.63-.18-.49-.36-.98-.5-1.49-.14-.51-.22-1.04-.31-1.57-.05-.27,.1-.46,.36-.49,.26-.03,.53-.04,.79-.06,.37-.02,.75-.03,1.12-.05,.41-.02,.82,0,1.22,.09,.87,.2,1.75,.32,2.6,.59,.47,.15,.93,.31,1.39,.47,.91,.3,1.76,.73,2.59,1.22,.56,.33,1.14,.61,1.71,.93,.45,.25,.89,.52,1.32,.81,.53,.36,1.05,.73,1.57,1.11,.62,.45,1.2,.95,1.74,1.49,.91,.91,1.68,1.94,2.45,2.96,.12,.16,.22,.33,.35,.53,.06-.06,.12-.1,.16-.16,.17-.27,.32-.56,.5-.83,.19-.29,.39-.58,.59-.86,.41-.59,.91-1.1,1.41-1.62,.38-.39,.77-.78,1.17-1.16,.61-.57,1.26-1.09,1.93-1.58,.27-.2,.56-.36,.86-.51,.98-.5,1.98-.96,3-1.36,.87-.34,1.72-.73,2.59-1.04,.63-.23,1.29-.39,1.94-.55,1.09-.26,2.19-.51,3.3-.66,.14-.02,.22,0,.28,.13,.08,.17,.22,.33,.01,.51-.04,.04,0,.16-.01,.23-.06,.28-.13,.55-.21,.82-.1,.35-.22,.7-.31,1.05-.13,.58-.35,1.13-.57,1.68-.24,.59-.47,1.17-.76,1.74-.39,.76-.8,1.51-1.31,2.21-.31,.43-.63,.86-1,1.24-.48,.51-.97,1.01-1.48,1.48-.54,.49-1.11,.96-1.68,1.42-.32,.26-.66,.5-1,.74-.41,.29-.8,.59-1.23,.85-.78,.48-1.57,.94-2.44,1.25-.68,.24-1.37,.41-2.07,.54-.05,0-.1,.01-.15,.03-.34,.11-.7,.16-1.06,.13-.04,0-.08,0-.13,.01-.01,.04-.04,.08-.04,.11-.02,.89-.04,1.78-.04,2.67,0,.59,.01,1.18,.01,1.77,0,.13,.07,.15,.17,.16,.24,.02,.48,.02,.72,.07,.53,.11,1.06,.22,1.58,.36,.75,.2,1.49,.41,2.23,.64,.6,.19,1.18,.39,1.77,.61,.69,.26,1.4,.5,2.07,.81,.94,.42,1.91,.78,2.78,1.34,.51,.33,1.01,.68,1.45,1.1,.34,.33,.7,.64,1.05,.95,.51,.45,.95,.98,1.38,1.51,.26,.32,.52,.63,.76,.96,.54,.72,1.04,1.46,1.42,2.29,.26,.58,.57,1.15,.8,1.75,.2,.51,.33,1.04,.48,1.57,.02,.07-.02,.17-.04,.26,.15,.04,.18,.2,.23,.34,.05,.14-.08,.29-.24,.3-.34,.03-.68,.06-1.02,.06-.94,0-1.88,.04-2.82,0-.99-.05-1.98-.03-2.97-.03-.95,0-1.9,.03-2.85,.04-.97,.02-1.95,.03-2.92,.05-.69,.01-1.38,.03-2.07,.04-.67,0-1.33,.01-2,0-.97-.01-1.95-.03-2.92-.05-.4,0-.8-.03-1.2-.04-.72-.02-1.43-.05-2.15-.05-.94,0-1.88,0-2.82,0-.54,0-1.08,0-1.62,0-.6,.01-1.2,.04-1.8,.07-.52,.02-1.03,.05-1.54,.08-.73,.04-1.46,.1-2.19,.15-.55,.04-1.1,.08-1.64,.09-.79,.01-1.58,.07-2.36-.05-.29,.09-.56-.04-.85-.05-.45-.02-.89-.11-1.33-.15-.16-.01-.26-.06-.32-.24,.11-.02,.22-.06,.31-.04,.36,.07,.72,.02,1.07,.04,.46,.02,.91,.07,1.37,.11,.06,0,.12,0,.17,0,.74-.04,1.48-.07,2.22-.11,.52-.03,1.05-.07,1.57-.1,.81-.05,1.63-.11,2.44-.16,2.11-.12,4.23-.19,6.35-.17,.7,0,1.4,0,2.1,.03,.69,.02,1.38,.07,2.07,.09,.82,.02,1.65,0,2.47,.02,.42,0,.83,.04,1.25,.03,.77,0,1.53-.03,2.3-.05,.92-.02,1.83-.01,2.75-.06,1.22-.06,2.43-.06,3.65-.06,.91,0,1.82-.03,2.72-.03,.69,0,1.38,.04,2.07,.04,.58,0,1.17-.01,1.75-.02,.08,0,.16-.02,.26-.03-.02-.08-.02-.15-.04-.21-.19-.74-.44-1.45-.77-2.13-.27-.56-.52-1.13-.8-1.69-.13-.27-.29-.53-.46-.77-.7-.99-1.45-1.96-2.3-2.83-.68-.7-1.37-1.42-2.18-1.99-.5-.35-.99-.7-1.57-.91-.1-.04-.2-.07-.31-.1,0,.04-.02,.06-.02,.08-.04,.25-.11,.32-.35,.33-.53,.02-1.07,.04-1.6,.04-1.38,0-2.76-.03-4.15-.05-.71,0-1.42-.02-2.12-.04-1.12-.03-2.25-.06-3.37-.11-.66-.03-1.31-.1-1.97-.14-.14-.01-.26-.07-.4-.05-.12,.01-.2-.1-.28-.19h0Z"/><path class="cls-1" d="M31.58,26.08c-.21,0-.35-.11-.39-.25-.05-.16,.02-.27,.14-.37,.23-.2,.47-.4,.7-.6,.56-.49,1.11-.98,1.68-1.46,.68-.58,1.37-1.16,2.07-1.73,.67-.54,1.34-1.07,2.02-1.6,.61-.48,1.22-.96,1.83-1.43,.35-.27,.69-.55,1.04-.82,.08-.06,.16-.12,.25-.17,.18-.1,.34-.06,.45,.07,.1,.13,.09,.27-.07,.42-.19,.18-.39,.34-.58,.51-.53,.44-1.05,.89-1.6,1.32-.73,.58-1.49,1.13-2.21,1.71-.79,.63-1.56,1.28-2.33,1.93-.84,.72-1.67,1.46-2.5,2.19-.08,.07-.15,.13-.24,.18-.09,.05-.2,.08-.25,.1Z"/><path class="cls-1" d="M21.05,19.46c.12,.08,.24,.14,.34,.22,.68,.55,1.37,1.09,2.04,1.65,.55,.46,1.13,.88,1.71,1.3,.77,.55,1.52,1.11,2.29,1.65,.42,.29,.85,.55,1.28,.82,.42,.27,.85,.53,1.27,.79,.06,.04,.12,.09,.17,.14,.11,.12,.11,.29,0,.41-.09,.12-.23,.14-.38,.06-.01,0-.03-.02-.04-.02-.94-.6-1.89-1.18-2.82-1.8-.77-.51-1.51-1.06-2.26-1.6-.66-.48-1.31-.97-1.91-1.52-.34-.31-.71-.58-1.06-.87-.22-.19-.43-.39-.64-.6-.26-.26-.25-.31,0-.63Z"/><path class="cls-1" d="M44.3,41.05c-.75-.02-1.28-.04-1.81-.06-.52-.01-1.05-.02-1.57-.03-.93-.01-1.86-.03-2.8-.04-.3,0-.6,.02-.9,.03-.31,0-.61,.02-.92,.01-.09,0-.21-.04-.26-.11-.12-.16-.07-.28,.13-.33,.26-.07,.53-.13,.8-.17,.82-.11,1.64-.14,2.47-.12,.56,0,1.12,0,1.67,.03,.7,.03,1.39,.07,2.09,.11,.53,.02,1.06,.05,1.59,.06,.35,0,.7,0,1.05,0,.06,0,.12,.01,.17,0,.21-.08,.34,.07,.48,.18,.09,.06,.06,.15-.03,.21-.21,.14-.45,.18-.69,.19-.56,.03-1.13,.03-1.48,.04Z"/><path class="cls-1" d="M17.59,40.62c.07-.1,.22-.17,.11-.32,1.08-.13,2.13-.14,3.19-.09,.15,0,.3,0,.45,0,.76,.02,1.51,.05,2.27,.06,.51,0,1.02-.01,1.52,0,.41,0,.82,.02,1.22,.04,.24,.01,.36,.22,.28,.44-.05,.14-.16,.18-.29,.19-.22,.02-.45,.03-.67,.04-1.19,0-2.38,.02-3.57,0-.72,0-1.45-.07-2.17-.1-.57-.02-1.15-.04-1.72-.05-.23,0-.43-.08-.63-.2Z"/><path class="cls-1" d="M26.93,39.34c-.06,.16-.15,.22-.29,.23-.52,.03-1.05,.09-1.57,.1-1.01,.01-2.02,0-3.02,0-.8,0-1.6-.03-2.4-.05-.5-.02-1-.05-1.49-.08-.05,0-.1-.01-.14-.03-.19-.05-.19-.05-.21-.24,0-.06,0-.12,0-.17,.44-.19,.91-.16,1.37-.16,.72,0,1.43,0,2.15,0,1.18,.01,2.36,.04,3.55,.05,.52,0,1.03-.01,1.55-.02,.07,0,.13,0,.2,0,.1,0,.17,.04,.2,.15,.02,.08,.08,.14,.12,.22Z"/><path class="cls-1" d="M16.53,20.99l.2-.18c.21,.05,.31,.21,.42,.35,.66,.79,1.37,1.52,2.2,2.12,1.12,.82,2.32,1.5,3.6,2.03,.6,.25,1.23,.42,1.84,.62,.12,.04,.24,.07,.36,.1,.17,.03,.26,.15,.35,.26-.12,.23-.22,.3-.43,.25-.39-.08-.78-.16-1.16-.28-.78-.23-1.53-.52-2.25-.89-.76-.39-1.51-.81-2.22-1.29-.78-.54-1.48-1.16-2.08-1.89-.2-.24-.4-.49-.58-.75-.1-.14-.16-.3-.25-.46Z"/><path class="cls-1" d="M43.81,45.3c-.03,.07-.09,.16-.08,.22,.03,.13-.11,.17-.12,.17-.28,.02-.53,.15-.81,.18-.74,.07-1.47,.16-2.21,.22-.72,.05-1.45,.06-2.17,.08-.79,.02-1.58,.02-2.37,.03-.19,0-.38,.02-.57,.02-.16,0-.21-.06-.24-.19-.02-.11,0-.2,.12-.23,.25-.06,.49-.16,.75-.18,.6-.06,1.21-.09,1.82-.12,1.21-.05,2.43-.08,3.64-.14,.51-.02,1.03-.07,1.54-.1,.14,0,.28,.02,.42,.03l.28,.02Z"/><path class="cls-1" d="M23.27,24.42l-.22,.21c-.13-.03-.23-.05-.33-.07-.51-.14-.99-.36-1.44-.62-.86-.48-1.65-1.07-2.42-1.68-.6-.48-1.17-.98-1.71-1.54-.51-.53-1.02-1.07-1.52-1.61-.06-.06-.16-.13-.08-.25,.01-.02-.05-.09-.09-.16l.12-.21c.28,.25,.56,.48,.82,.72,.13,.12,.25,.25,.37,.37,.59,.56,1.15,1.13,1.77,1.66,.57,.49,1.2,.93,1.8,1.38,.24,.18,.49,.35,.74,.51,.55,.38,1.15,.66,1.77,.92,.18,.07,.33,.17,.43,.38Z"/><path class="cls-1" d="M36.22,44.92l-.02-.33c.43-.26,.92-.27,1.4-.29,1.34-.06,2.68-.08,4.02-.12,.63-.02,1.26-.05,1.9-.07,.12,0,.25,.04,.36,.09,.06,.03,.13,.15,.11,.19-.04,.1,.02,.27-.15,.31-.17,.04-.34,.09-.51,.11-.38,.03-.76,.06-1.15,.07-1.46,.02-2.93,.03-4.39,.05-.39,0-.78,.03-1.17,.04-.13,0-.27,.04-.39-.07Z"/><path class="cls-1" d="M45.18,39.5s.01,.03,0,.04c-.09,.4-.1,.42-.52,.43-.42,0-.85,0-1.27,0-.81,0-1.62,0-2.42-.02-.87-.01-1.73-.02-2.6-.05-.36-.01-.73-.01-1.08-.14,0-.01,0-.03,0-.04,.08-.3,.15-.37,.47-.38,.57-.03,1.13-.06,1.7-.08,.69-.02,1.38-.02,2.07-.01,.62,0,1.25,.01,1.87,.03,.47,.01,.93,.04,1.4,.06,.14,0,.28,.05,.37,.16Z"/><path class="cls-1" d="M26.61,19.1c-.2,.15-.23,.16-.43,0-.44-.34-.88-.68-1.33-1.02-.71-.54-1.43-1.05-2.21-1.49-.56-.31-1.08-.69-1.61-1.04-.32-.21-.64-.42-.96-.62-.25-.16-.52-.29-.78-.44-.16-.09-.17-.14-.1-.39,.79,.19,1.51,.53,2.18,.98,.73,.49,1.49,.94,2.24,1.4,.61,.38,1.17,.82,1.73,1.27,.35,.29,.7,.59,1.04,.89,.2,.18,.19,.18,.23,.46Z"/><path class="cls-1" d="M34.6,19.46l-.21-.15,.07,.22-.35,.13c-.06-.18,.07-.14,.16-.17-.03-.12,0-.22,.1-.32,.11-.11,.17-.26,.29-.38,.31-.32,.58-.68,.9-.99,.33-.33,.68-.64,1.04-.93,.58-.46,1.16-.93,1.77-1.33,.79-.52,1.59-1.02,2.45-1.39,.15-.07,.3-.15,.45-.22,.08-.04,.17-.07,.26-.09,.12-.02,.25,.07,.29,.19,.03,.1-.02,.24-.12,.3-.17,.09-.34,.17-.52,.25-.69,.29-1.33,.68-1.98,1.06-1.09,.64-2.08,1.41-3.02,2.25-.4,.35-.78,.73-1.16,1.09-.02,.02-.03,.04-.06,.05-.16,.1-.31,.21-.38,.43Z"/><path class="cls-1" d="M14.1,43.46c.06-.05,.08-.07,.1-.09,.02-.02,.05-.04,.08-.06l-.06-.11c.12-.17,.28-.24,.49-.25,.25-.02,.49-.08,.74-.1,.57-.05,1.14-.09,1.72-.12,.56-.03,1.12-.04,1.67-.07,.52-.02,1.05-.05,1.57-.07,.19,0,.38-.02,.57-.03,.12,0,.22,.04,.32,.11,.1,.07,.14,.16,.13,.27-.01,.12-.09,.2-.2,.24-.08,.03-.16,.04-.24,.05-1.04,.06-2.08,.11-3.12,.16-.81,.04-1.61,.08-2.42,.09-.35,0-.7,.06-1.04-.03-.08-.02-.17,0-.31,.01Z"/><path class="cls-1" d="M21.99,44.4c-.14,.14-.32,.16-.49,.17-.77,.06-1.54,.12-2.31,.15-1.01,.04-2.03,.06-3.04,.09-.2,0-.4-.02-.59-.03-.21-.01-.25-.05-.26-.19,0-.08,.13-.24,.24-.26,.26-.05,.52-.1,.78-.13,.35-.03,.71-.05,1.07-.06,.92-.04,1.85-.07,2.77-.11,.46-.02,.93-.05,1.39-.07,.06,0,.12,0,.17,0,.15,.03,.23,.13,.25,.28,0,.05,.02,.09,.03,.16Z"/><path class="cls-1" d="M26.01,19.89l-.24,.17c-.09-.06-.18-.12-.26-.18-.71-.56-1.42-1.13-2.14-1.69-.58-.45-1.16-.9-1.74-1.34-.28-.21-.56-.41-.84-.62-.04-.03-.08-.06-.11-.1-.02-.04-.04-.11-.02-.13,.04-.05,.14-.11,.16-.09,.11,.09,.24,.03,.35,.08,.06,.03,.13,.05,.18,.08,1.23,.74,2.36,1.62,3.45,2.55,.34,.28,.67,.58,1,.87,.11,.1,.21,.22,.21,.4Z"/><path class="cls-1" d="M39.44,16.29l.19,.22c-.15,.15-.3,.31-.47,.45-.55,.45-1.1,.89-1.65,1.34-.76,.62-1.52,1.25-2.28,1.87-.12,.09-.24,.18-.38,.24-.2,.09-.4-.05-.37-.24,.01-.07,.07-.15,.12-.2,1.07-.86,2.14-1.72,3.21-2.58,.45-.36,.92-.68,1.4-.99,.07-.04,.15-.07,.23-.1Z"/><path class="cls-1" d="M29.62,27.12c0,.23-.12,.34-.31,.29-.18-.05-.34-.12-.51-.19-.81-.35-1.57-.8-2.33-1.26-.3-.19-.59-.4-.87-.62-.16-.13-.16-.17-.08-.29,.09-.14,.19-.18,.34-.1,.23,.12,.45,.25,.67,.38,.93,.55,1.89,1.05,2.88,1.5,.14,.07,.24,.15,.22,.28Z"/><path class="cls-1" d="M11.22,47.08l.15-.1c-.03,.07-.03,.11-.06,.13-.02,.02-.05,.01-.08,.02l-.02-.05Z"/><path class="cls-1" d="M27.79,35.83s-.05,0-.07-.02c-.02-.02-.03-.05-.05-.07,0,0,.03-.03,.03-.03,.02,.01,.05,.03,.07,.05,.01,.02,0,.05,.01,.07h0Z"/><path class="cls-1" d="M11.51,47.11l.05,.1-.03,.02-.07-.09,.05-.03Z"/><path class="cls-1" d="M35.96,40.83s-.04,.02-.06,.02c0,0-.01-.02-.02-.03,.02,0,.04-.02,.06-.02,0,0,.02,.02,.03,.04Z"/></g></g></svg>