<?xml version="1.0" encoding="UTF-8"?><svg id="Calque_2" xmlns="http://www.w3.org/2000/svg" viewBox="0 0 53.65 52.88"><defs><style>.cls-1{fill:#f4ecde;}.cls-2{fill:#85735a;}.cls-3{fill:none;stroke:#85735a;stroke-miterlimit:10;stroke-width:1.14px;}</style></defs><g id="Calque_2-2"><ellipse class="cls-2" cx="26.82" cy="26.44" rx="26.82" ry="26.44"/><g><path class="cls-1" d="M30.7,6.16c2.19,1.63,4.7,2.97,6.5,4.94,3.39,3.73,4.21,8.41,2.02,12.85-3.46,7.01-7.53,13.72-11.34,20.56h-2.06c-3.98-7.21-8.42-14.22-11.79-21.7-2.36-5.24,.83-11.73,5.92-14.77,1.03-.62,2.05-1.25,3.08-1.88,2.56,0,5.13,0,7.69,0Zm-3.95,9.26c-3.35,.02-6.15,2.36-5.23,5.38,.66,2.17,3.1,4.37,5.3,5.35,2.14,.95,5.8-2.95,5.54-5.48-.33-3.23-1.77-5.56-5.62-5.26Z"/><path class="cls-1" d="M26.86,16.31c1.51,2.16,2.96,3.33,2.79,4.21-.22,1.2-1.67,2.19-2.59,3.27-1.06-1.08-2.56-2.02-3-3.31-.24-.72,1.29-2.02,2.8-4.17Z"/></g><line class="cls-3" x1="19.83" y1="28.59" x2="25.66" y2="39.52"/><line class="cls-3" x1="37.53" y1="22.31" x2="32.65" y2="31.39"/><line class="cls-3" x1="20.53" y1="25.14" x2="24.46" y2="32.51"/></g></svg>