<?xml version="1.0" encoding="UTF-8"?><svg id="Calque_2" xmlns="http://www.w3.org/2000/svg" viewBox="0 0 53.65 52.88"><defs><style>.cls-1{fill:#f4ecde;}.cls-2{fill:#85735a;}</style></defs><g id="Calque_2-2"><ellipse class="cls-2" cx="26.82" cy="26.44" rx="26.82" ry="26.44"/><g id="Be2uB6"><g><path class="cls-1" d="M31.22,43.46c-1.78-.42-3.41-1.18-4.8-2.35-1.11-.94-2.18-1.94-3.17-3-1.74-1.85-3.18-3.93-4.55-6.05-1.34-2.09-2.01-4.45-2.53-6.84-.61-2.82-.87-5.68-.93-8.56-.04-2.09,.6-3.9,2.34-5.21,1-.76,2.15-1.19,3.38-1.44,.52-.11,1.06-.16,1.64-.24,.03,.84,.07,1.62,.09,2.41,.07,2.34,.14,4.69,.19,7.03,0,.16-.1,.4-.22,.46-1.64,.86-2,2.63-1.26,4.07,1.82,3.54,3.77,7.01,5.68,10.5,.41,.75,1.02,1.31,1.94,1.43,.68,.09,1.29-.11,1.9-.36,.14-.05,.37-.04,.48,.04,2.5,1.91,4.98,3.84,7.46,5.77,.04,.03,.07,.08,.2,.21-1,.45-1.94,.91-2.91,1.29-.82,.33-1.68,.56-2.53,.84h-2.39Z"/><path class="cls-1" d="M39.91,40.76l-8.08-6.32c.77-.39,1.46-.86,2.23-1.08,.36-.1,.91,.18,1.28,.43,.98,.67,1.91,1.41,2.86,2.12,.6,.45,1.19,.92,1.78,1.38,.6,.47,.75,.93,.52,1.66-.18,.59-.37,1.17-.58,1.82Z"/><path class="cls-1" d="M23.54,9.73c1.03,.06,1.86,.43,2.5,1.17,.12,.13,.17,.36,.17,.54,.04,1.91,.03,3.82,.1,5.72,.02,.61-.15,1.09-.62,1.42-.44,.31-.94,.54-1.44,.76-.29,.13-.49,.01-.5-.34-.03-.7-.11-1.4-.12-2.1-.05-2.29-.08-4.57-.11-6.86,0-.08,.01-.16,.02-.32Z"/></g></g></g></svg>