<?xml version="1.0" encoding="UTF-8"?><svg id="Calque_2" xmlns="http://www.w3.org/2000/svg" viewBox="0 0 61.2 61.2"><defs><style>.cls-1{fill:#fff;}.cls-2{fill:#85735a;}</style></defs><g id="Calque_2-2"><circle class="cls-2" cx="30.6" cy="30.6" r="30.6"/><g><path class="cls-1" d="M10.08,26.14l.15,.18c.02-.14,.04-.26,.06-.38,.01-.1,.07-.16,.17-.17,.13-.02,.26-.05,.39-.05,.29-.02,.58-.02,.87-.04,1.13-.08,2.25,0,3.38,.02,.37,0,.74,.02,1.12,.04,.23,0,.26,0,.27-.25,.02-.56,.02-1.12,.05-1.69,.04-.8,.09-1.6,.13-2.39,.03-.6,.03-1.19,.06-1.79,.04-.73,.09-1.45,.13-2.18,.02-.31,.02-.61,.02-.92,0-.18,.01-.37,.02-.55,0-.3,.03-.6,.03-.9,0-.78,.08-1.56,.17-2.34,.02-.17,.04-.35,.04-.53,0-.31,.13-.56,.3-.8,.2-.27,.45-.49,.73-.68,.95-.66,1.93-1.23,3.02-1.65,.56-.21,1.09-.5,1.64-.76,.69-.33,1.41-.56,2.15-.78,.93-.27,1.87-.53,2.84-.7,.73-.12,1.45-.21,2.19-.21,.86,0,1.72,.03,2.57,.16,1.29,.19,2.56,.46,3.81,.84,.66,.2,1.32,.41,1.97,.62,.18,.06,.34,.14,.51,.21,.5,.21,1.01,.4,1.49,.64,.37,.18,.71,.43,1.06,.65,.37,.22,.7,.48,.95,.83,.06,.08,.13,.14,.21,.2,.29,.22,.48,.52,.68,.8,.2,.28,.22,.63,.23,.96,.04,1.25,.06,2.51,.08,3.76,.01,.93,.01,1.86,0,2.79,0,.79-.04,1.58-.05,2.37,0,.85-.03,1.7,.04,2.55,.05,.54,.06,1.09,.08,1.63,0,.24-.19,.4-.43,.37-.1-.01-.17-.05-.2-.15-.05-.15-.11-.3-.13-.45-.05-.59-.08-1.17-.11-1.76-.07-1.2-.02-2.39,.01-3.59,.02-.81,.01-1.61,.02-2.42,0-.12,.01-.24,.01-.37,0-1.18,0-2.35,0-3.53,0-.46,.05-.91,.08-1.37,.01-.17-.04-.31-.16-.43-.23-.23-.47-.45-.71-.67-.13-.13-.28-.25-.39-.39-.21-.28-.51-.46-.79-.66-.07-.05-.15-.1-.22-.15-.32-.22-.66-.4-1.04-.53-.34-.11-.68-.26-1.01-.41-.37-.18-.75-.31-1.15-.42-.5-.14-.98-.31-1.47-.45-2.12-.6-4.26-1.03-6.48-.93-.99,.04-1.96,.21-2.91,.47-.84,.23-1.68,.46-2.5,.75-.62,.21-1.21,.5-1.81,.76-.43,.19-.86,.39-1.29,.57-.91,.39-1.75,.89-2.55,1.46-.29,.2-.46,.48-.63,.77-.04,.06-.04,.15-.05,.23-.02,.33-.02,.67-.04,1-.02,.63-.06,1.26-.07,1.89-.01,.62,0,1.25-.02,1.87-.02,.5-.09,1-.12,1.5-.04,.88-.07,1.77-.1,2.66-.02,.54-.04,1.09-.06,1.63-.02,.61-.04,1.23-.06,1.84,0,.24-.02,.47-.03,.71,0,.13,.03,.22,.16,.3,.19,.11,.24,.29,.18,.5-.05,.19-.14,.27-.4,.28-.42,.01-.85,0-1.28,0-.68-.01-1.37-.03-2.05-.06-.36-.01-.73-.06-1.09-.07-.33,0-.66,.01-.98,.01-.42,0-.83,0-1.25-.01-.09,0-.19,0-.32,0,.05,.17,.07,.31,.12,.44,.23,.64,.28,1.3,.34,1.97,.05,.57,.11,1.14,.19,1.7,.2,1.39,.4,2.78,.61,4.17,.03,.2,.07,.4,.11,.6,.12,.54,.2,1.08,.36,1.62,.17,.55,.27,1.13,.39,1.7,.19,.86,.38,1.72,.55,2.58,.38,1.95,.76,3.9,1.13,5.85,.15,.8,.27,1.61,.41,2.42,.03,.19,.08,.38,.11,.57,.04,.33-.2,.53-.52,.46-.16-.03-.19-.14-.22-.26-.07-.31-.14-.62-.19-.93-.08-.47-.16-.93-.24-1.4-.1-.61-.2-1.23-.31-1.84-.08-.45-.19-.89-.28-1.34-.12-.6-.23-1.21-.35-1.81-.23-1.19-.45-2.38-.7-3.57-.24-1.14-.53-2.28-.75-3.42-.18-.92-.32-1.85-.46-2.78-.16-1.07-.29-2.14-.43-3.21-.08-.63-.13-1.26-.22-1.88-.07-.49-.19-.96-.28-1.45,0-.04-.02-.09-.02-.13-.01-.15,.04-.23,.19-.27,.09-.03,.19-.05,.31-.08Z"/><path class="cls-1" d="M46.06,50.82c.08-.24,.18-.48,.25-.73,.29-.92,.55-1.86,.89-2.76,.3-.8,.53-1.62,.79-2.42,.31-.96,.59-1.93,.88-2.9,.19-.64,.41-1.27,.58-1.91,.35-1.29,.68-2.58,1-3.88,.16-.63,.28-1.27,.42-1.9,.12-.54,.25-1.08,.38-1.62,.2-.87,.52-1.7,.8-2.54,.24-.74,.48-1.47,.72-2.21,.02-.07,.07-.14,.09-.22,.07-.19,.04-.26-.16-.29-.26-.03-.53-.05-.79-.07-.78-.06-1.56-.11-2.34-.17-1.06-.07-2.12-.16-3.18-.22-.46-.03-.92-.01-1.38-.02-.17,0-.34-.03-.5-.05-.2-.02-.4-.05-.61-.08-.09-.01-.18-.03-.25-.07-.13-.07-.13-.18-.03-.28,.04-.04,.1-.06,.12-.1,.09-.23,.29-.23,.49-.22,.26,.01,.51,.05,.77,.06,.54,.01,1.08,0,1.62,.02,.61,.02,1.22,.07,1.83,.11,.4,.03,.8,.06,1.19,.09,.54,.04,1.08,.09,1.61,.13,.61,.05,1.22,.09,1.83,.14,.19,.01,.34,.13,.37,.38,.04,.33,.1,.66,0,.99-.21,.71-.4,1.42-.63,2.12-.33,.99-.66,1.98-.89,3.01-.24,1.08-.49,2.16-.75,3.23-.16,.68-.36,1.36-.53,2.04-.16,.61-.31,1.23-.48,1.83-.26,.91-.53,1.82-.81,2.72-.38,1.25-.77,2.5-1.16,3.75-.18,.58-.38,1.15-.56,1.73-.16,.53-.3,1.06-.47,1.59-.1,.31-.23,.61-.34,.91-.04,.1-.07,.2-.1,.3-.12,.34-.32,.44-.68,.38-.22-.04-.46-.04-.69-.04-.2,0-.41,.03-.61,.03-1.08,0-2.16,0-3.25,0-.26,0-.51,.03-.77,.03-.99,.01-1.98,.02-2.97,.02-.72,0-1.43-.03-2.15-.03-.6,0-1.21,0-1.81,0-.89-.02-1.79-.04-2.68-.07-.83-.03-1.66-.1-2.49-.14-.4-.02-.8-.02-1.2-.02-.58,0-1.17-.02-1.75-.03-.19,0-.37,0-.56,0-1.08,0-2.16-.06-3.24,.04-.68,.07-1.36,.08-2.04,.11-.77,.03-1.54-.07-2.3-.12-.26-.02-.53-.03-.8-.03-.57,0-1.13,0-1.7-.02-.22,0-.27-.05-.32-.24-.03-.12-.02-.24,.1-.3,.13-.06,.27-.14,.42-.15,.73-.02,1.45-.04,2.18-.03,.71,.01,1.42,.08,2.13,.1,.42,0,.85-.03,1.28-.06,1.14-.08,2.28-.18,3.43-.14,.73,.03,1.46,0,2.18,0,.78,.01,1.56,.05,2.34,.08,.21,0,.43,0,.64,.01,.83,.04,1.67,.09,2.5,.11,1.21,.03,2.43,0,3.64,.06,1.4,.06,2.8,.04,4.2,.03,1.22,0,2.43-.04,3.65-.05,.39,0,.78,.03,1.17,.04,.19,0,.39-.03,.58-.04,.3-.02,.6-.03,.93-.04Z"/><path class="cls-1" d="M21.74,25.48h-.15c-.12-.25-.09-.52-.09-.77,0-.71-.02-1.42-.06-2.13-.03-.62-.03-1.25-.01-1.87,.02-.7,.05-1.4,.12-2.1,.07-.8,.36-1.54,.67-2.27,.31-.74,.73-1.43,1.3-2.01,.45-.46,.96-.87,1.51-1.2,.24-.14,.51-.26,.78-.32,.61-.15,1.23-.3,1.85-.36,.93-.09,1.87-.21,2.81-.21,1.03,0,2.04,.1,3.03,.34,1.22,.3,2.32,.84,3.28,1.67,.9,.78,1.52,1.72,1.94,2.82,.26,.69,.38,1.41,.53,2.12,.1,.46,.12,.92,.13,1.39,0,.4,.07,.81,.06,1.21,0,.95-.05,1.9-.06,2.85,0,.32,0,.65,.02,.98,0,.22,.03,.23,.25,.24,.35,.02,.69,.03,1.04,.06,.31,.02,.46,.17,.48,.43,.01,.28-.19,.46-.47,.44-1-.06-2-.14-3-.17-.98-.03-1.97-.02-2.95-.02-.63,0-1.26,.02-1.89,.02-.57,0-1.13-.02-1.7-.03-.34,0-.67,0-1.01,0-.66-.03-1.31,0-1.96,.03-.48,.02-.96,0-1.44,0-.89,0-1.77,0-2.66-.01-.46-.01-.92-.08-1.38-.1-.48-.03-.96-.04-1.44-.04-.33,0-.65-.03-.97-.12-.22-.06-.33-.21-.31-.4,.03-.18,.19-.32,.4-.29,.25,.03,.49,.03,.74,.07,.22,.03,.4-.02,.59-.2Zm16.86,.3c0-.44,0-.85,0-1.26-.03-1.12,.09-2.25,0-3.37-.04-.48-.01-.97-.06-1.45-.1-.88-.3-1.73-.62-2.56-.23-.58-.52-1.13-.92-1.62-.43-.52-.94-.95-1.5-1.33-.64-.44-1.35-.74-2.1-.93-1.04-.26-2.09-.38-3.16-.34-1.12,.04-2.25,.11-3.35,.33-.63,.13-1.26,.23-1.78,.64-.14,.11-.28,.21-.42,.33-.35,.3-.71,.59-.98,.96-.62,.83-1,1.77-1.29,2.76-.17,.56-.18,1.14-.23,1.72-.08,.99-.13,1.98-.08,2.98,.04,.84,.01,1.69-.08,2.53-.02,.14-.09,.27-.13,.41,.13,.09,.3,.07,.48,.08,.69,.04,1.38,.11,2.07,.13,.83,.02,1.66,.01,2.5,0,.72,0,1.43-.02,2.15-.02,.41,0,.81,.02,1.22,.02,.86,0,1.72,0,2.58,0,.49,0,.97,0,1.46,0,.81,0,1.63-.02,2.44-.02,.51,0,1.03,.02,1.54,.03,.08,0,.17-.01,.25-.02Z"/><path class="cls-1" d="M43.25,35.75l.23,.16c-.27,.52-.61,.96-.96,1.4-.56,.71-1.12,1.43-1.67,2.15-1.1,1.41-2.19,2.82-3.28,4.24-.67,.87-1.32,1.76-1.98,2.64-.05,.06-.1,.13-.15,.18-.13,.12-.27,.14-.38,.05-.12-.09-.14-.25-.04-.4,.2-.28,.4-.56,.61-.83,1.01-1.33,2.02-2.67,3.04-3.99,1.1-1.41,2.22-2.8,3.34-4.2,.27-.34,.58-.67,.84-1.02,.11-.15,.22-.29,.41-.38Z"/><path class="cls-1" d="M13.28,28.67l-.11-.35c.49-.13,.99-.2,1.5-.2,.94,0,1.88,.09,2.81,.14,.55,.03,1.1,.04,1.65,.07,.66,.04,1.33,.09,1.99,.12,.55,.02,1.1,.02,1.65,.04,.88,.03,1.75,.07,2.63,.1,.09,0,.17,.05,.26,.04,.15,0,.21,.04,.2,.2-.02,.2-.04,.25-.23,.25-.74,.01-1.49,.01-2.23,.02-.43,0-.87,.01-1.3,0-.51-.01-1.03-.04-1.54-.07-.71-.03-1.42-.05-2.12-.1-.74-.05-1.48-.1-2.23-.17-.93-.08-1.85-.16-2.78-.15-.05,0-.1,.03-.14,.04Z"/><path class="cls-1" d="M43.04,34.02c-.07,.05-.12,.11-.15,.2-.03,.12-.14,.22-.22,.33-.87,1.06-1.75,2.12-2.61,3.19-.97,1.2-1.92,2.41-2.87,3.63-.61,.79-1.2,1.59-1.79,2.39-.09,.13-.19,.25-.3,.37-.06,.06-.13,.11-.2,.17-.1,.07-.2,.07-.29-.01-.1-.09-.08-.19-.01-.28,.22-.34,.43-.69,.67-1.01,1.28-1.72,2.56-3.43,3.93-5.08,.86-1.03,1.72-2.06,2.59-3.08,.27-.32,.58-.61,.88-.9,.18-.17,.22-.16,.36,.09Z"/><path class="cls-1" d="M44.94,36.2c-.16,.12-.22,.27-.18,.45,0,.01,0,.04-.02,.05-.28,.26-.44,.62-.68,.91-.57,.72-1.12,1.45-1.68,2.18-.3,.39-.59,.79-.88,1.19-.64,.9-1.27,1.82-1.92,2.72-.64,.89-1.28,1.77-1.93,2.64-.14,.19-.28,.41-.52,.5l-.3-.15c.12-.38,.4-.66,.62-.97,.95-1.34,1.89-2.67,2.86-4,.67-.92,1.35-1.83,2.04-2.73,.49-.63,1.02-1.23,1.52-1.86,.15-.19,.36-.33,.48-.54,.03-.05,.09-.08,.15-.1,.07-.03,.09-.07,.13-.14,.05-.09,.17-.15,.26-.22l.06,.06Z"/><path class="cls-1" d="M40.14,35.55c.09,.13,.02,.21-.04,.29-.14,.19-.29,.38-.44,.56-1.01,1.17-1.95,2.39-2.88,3.61-.47,.62-.95,1.24-1.43,1.87-.61,.8-1.22,1.6-1.83,2.39-.12,.16-.25,.32-.39,.47-.07,.08-.16,.14-.25,.19-.14,.07-.23,.04-.32-.07-.09-.11-.06-.2,.02-.31,.32-.4,.65-.79,.96-1.2,.72-.94,1.42-1.89,2.14-2.82,.64-.82,1.28-1.64,1.93-2.45,.56-.69,1.14-1.36,1.73-2.03,.15-.17,.35-.31,.55-.45,.07-.05,.18-.04,.26-.05Z"/><path class="cls-1" d="M24.71,30.13c-.28,.02-.52,.04-.75,.04-1.09,.02-2.18,.04-3.27,.04-.8,0-1.6-.02-2.39-.06-1.05-.05-2.1-.14-3.16-.13-.32,0-.64,0-.95,0-.04,0-.09,0-.13-.01q-.03-.31,.27-.38c.83-.18,1.66-.2,2.51-.15,.12,0,.25,0,.37,.01,.87,.03,1.74,.07,2.6,.09,1.05,.02,2.09,.01,3.14,.02,.46,0,.92,.04,1.38,.06,.18,0,.25,.08,.3,.26,.01,.05,.04,.09,.08,.2Z"/><path class="cls-1" d="M22.91,41.65c.25,.12,.28,.21,.13,.4-.31,.38-.64,.75-.96,1.13-.47,.56-.94,1.12-1.41,1.68-.52,.62-1.03,1.23-1.55,1.85-.66,.79-1.31,1.59-1.98,2.38-.35,.41-.71,.81-1.07,1.21-.13,.15-.25,.17-.4,.08-.12-.07-.15-.19-.09-.31,.03-.05,.06-.09,.09-.13,.91-1.07,1.83-2.15,2.74-3.22,.67-.79,1.34-1.59,2.02-2.38,.35-.42,.72-.82,1.08-1.23,.29-.33,.59-.65,.89-.97,.07-.07,.17-.11,.25-.19,.09-.09,.17-.19,.25-.28Z"/><path class="cls-1" d="M14.96,31.18l-.13-.18s.01-.06,.03-.08c.13-.15,.3-.2,.49-.22,1.08-.12,2.16-.12,3.24-.11,1.36,0,2.71,0,4.07,.03,.44,0,.88,.05,1.32,.09,.07,0,.18,.03,.21,.08,.06,.09,.1,.21,.09,.31-.02,.14-.16,.14-.28,.14-.83,0-1.67,0-2.5-.01-.81,0-1.61,.01-2.42,0-.87,0-1.74-.04-2.6-.06-.33,0-.65-.03-.98-.03-.18,0-.36,.04-.54,.06Z"/><path class="cls-1" d="M38.37,47.97l-.3-.22c.06-.12,.1-.26,.17-.37,.6-.92,1.18-1.85,1.81-2.76,.79-1.13,1.61-2.23,2.42-3.34,.42-.57,.85-1.12,1.28-1.68,.13-.16,.26-.32,.4-.49l.24,.07c.01,.34-.2,.59-.37,.83-.94,1.33-1.92,2.63-2.87,3.96-.54,.76-1.06,1.54-1.58,2.31-.31,.45-.6,.91-.91,1.37-.08,.12-.2,.21-.3,.32Z"/><path class="cls-1" d="M23.41,42.63c.01,.22,.03,.37-.1,.52-.44,.52-.88,1.05-1.3,1.59-.52,.66-1.03,1.32-1.53,1.99-.72,.98-1.48,1.93-2.27,2.86-.07,.09-.15,.18-.23,.25-.05,.05-.12,.09-.18,.1-.12,.02-.23-.03-.3-.14-.06-.1-.01-.19,.05-.27,.19-.23,.38-.47,.56-.7,.68-.85,1.36-1.69,2.03-2.54,.47-.58,.94-1.17,1.41-1.75,.18-.23,.35-.47,.54-.68,.36-.38,.66-.82,1.1-1.12,.05-.03,.1-.06,.2-.13Z"/><path class="cls-1" d="M21.02,42.05l.15,.19s-.06,.06-.07,.09c-.04,.24-.19,.42-.33,.6-.96,1.19-1.93,2.38-2.9,3.56-.52,.63-1.07,1.25-1.61,1.86-.08,.09-.19,.15-.29,.21-.13,.08-.24,0-.3-.09-.04-.05,0-.16,.01-.24,.02-.05,.07-.1,.11-.15,.58-.68,1.16-1.35,1.74-2.03,.31-.36,.59-.74,.9-1.11,.33-.39,.67-.77,1-1.16,.28-.32,.55-.64,.84-.95,.12-.13,.26-.23,.38-.35,.1-.1,.17-.22,.26-.33,.03-.04,.07-.07,.11-.12Z"/><path class="cls-1" d="M15.09,27.47c.32-.21,.68-.22,1.03-.24,1.11-.05,2.22-.03,3.32,.05,.87,.06,1.73,.16,2.6,.24,.21,.02,.3,.09,.32,.22,.02,.17-.09,.31-.28,.31-.33,0-.66,0-.98-.02-1.01-.06-2.02-.15-3.02-.2-.85-.05-1.7-.07-2.55-.1-.19,0-.34-.07-.43-.26Z"/><path class="cls-1" d="M17.59,23.88c.15-1.72,.29-3.45,.44-5.17,.05-.6,.13-1.2,.19-1.81,.02-.23,.01-.46,.02-.68,0-.09,0-.18,.11-.2,.11-.02,.23,.06,.24,.18,.02,.19,.05,.39,.04,.58-.04,.69-.1,1.38-.16,2.07-.08,.95-.17,1.91-.24,2.86-.07,.88-.11,1.75-.17,2.63,0,.09,0,.18-.03,.26-.04,.18-.14,.27-.28,.26-.14-.02-.21-.12-.19-.32,.01-.22,.03-.44,.05-.66h-.03Z"/><path class="cls-1" d="M23.48,43.95c.18,.08,.22,.17,.13,.31-.11,.18-.22,.35-.35,.52-.24,.32-.49,.64-.74,.96-.44,.56-.86,1.14-1.32,1.69-.55,.67-1.11,1.32-1.68,1.97-.1,.12-.23,.22-.36,.3-.06,.03-.2,.02-.24-.02-.07-.08-.16-.19-.06-.31,.15-.19,.3-.37,.45-.55,.68-.8,1.37-1.59,2.04-2.39,.57-.69,1.11-1.41,1.68-2.1,.12-.15,.29-.25,.43-.38Z"/><path class="cls-1" d="M34.27,11c.19-.19,.36-.19,.55-.13,.48,.15,.92,.36,1.34,.62,.36,.23,.73,.44,1.07,.68,.46,.32,.91,.66,1.36,1.01,.42,.33,.82,.67,1.22,1.02,.2,.17,.38,.37,.54,.57,.12,.15,.07,.25-.09,.34-.1,.06-.16,0-.23-.05-.42-.36-.82-.73-1.25-1.06-.73-.57-1.47-1.13-2.22-1.68-.58-.43-1.21-.79-1.88-1.09-.14-.06-.27-.16-.42-.25Z"/><path class="cls-1" d="M39.21,15.78c-.08-.06-.17-.11-.24-.18-.33-.36-.64-.73-.98-1.07-.32-.32-.68-.61-1.03-.92-.58-.52-1.25-.88-1.93-1.24-.17-.09-.17-.11-.07-.3l.04,.2,.08-.16c.13-.04,.26,.02,.39,.07,.78,.3,1.47,.74,2.09,1.29,.38,.34,.76,.68,1.13,1.04,.21,.2,.39,.43,.48,.72,0,.03,.01,.06,.03,.07,.15,.14,.15,.3,.01,.49Z"/><path class="cls-1" d="M36.64,10.49c.08,.03,.21,.06,.32,.13,.75,.43,1.5,.87,2.16,1.44,.36,.31,.69,.66,1.01,1.01,.13,.14,.1,.27-.05,.38-.07,.05-.14,.07-.22,0-.09-.08-.19-.16-.28-.24-.65-.65-1.35-1.24-2.14-1.72-.33-.2-.66-.41-.99-.61-.09-.05-.14-.1-.11-.21,.04-.13,.13-.19,.3-.18Z"/><path class="cls-1" d="M19.2,18.23c.09,.26,.08,.51,.06,.74-.05,.74-.11,1.47-.18,2.21-.04,.46-.1,.93-.16,1.39,0,.07-.05,.16-.1,.2-.14,.11-.33,.03-.36-.16-.01-.09,0-.18,0-.26,.1-.98,.2-1.96,.3-2.94,.03-.31,.07-.63,.1-.94,.02-.19,.16-.21,.34-.24Z"/><path class="cls-1" d="M23.51,42.64v-.13s.03,.03,.04,.05c0,0-.01,.03-.04,.08Z"/></g></g></svg>