<?xml version="1.0" encoding="UTF-8"?><svg id="Calque_2" xmlns="http://www.w3.org/2000/svg" viewBox="0 0 61.2 61.2"><defs><style>.cls-1{fill:#fff;}.cls-2{fill:#85735a;}</style></defs><g id="Calque_2-2"><circle class="cls-2" cx="30.6" cy="30.6" r="30.6"/><g><path class="cls-1" d="M9.05,15.95c.15-.2,.32-.2,.51-.18,.91,.06,1.82,.13,2.74,.17,.41,.02,.83-.02,1.24-.03,.96-.03,1.92-.07,2.88-.09,1.08-.02,2.16,.02,3.23-.05,1.25-.09,2.5-.06,3.75-.11,.81-.03,1.61-.1,2.42-.11,1.01,0,2.02,.03,3.03,.05,.73,.02,1.46,.05,2.19,.08,.25,.01,.5,.05,.75,.06,.83,.05,1.65,.09,2.48,.13,.66,.03,1.32,.06,1.99,.08,.64,.02,1.28,.05,1.93,.05,1,.01,2,.01,3,.01,.74,0,1.48,0,2.22-.02,.31,0,.61-.05,.92-.06,.65-.02,1.31-.03,1.96-.05,1.24-.03,2.48-.07,3.72-.1,.59-.02,1.17-.02,1.76-.05,.47-.02,.94-.03,1.4-.17,.32-.1,.53,.1,.51,.48-.05,.8-.1,1.61-.15,2.41-.05,.76-.1,1.52-.16,2.28-.12,1.53-.25,3.06-.35,4.6-.06,.89-.06,1.79-.08,2.68-.03,1.31-.1,2.61-.23,3.91-.06,.63-.08,1.26-.12,1.89-.09,1.4-.17,2.81-.26,4.21-.1,1.59-.22,3.18-.32,4.76-.04,.6-.06,1.2-.09,1.79-.02,.32-.08,.4-.36,.41-.04,0-.1,0-.13,.04-.34,.45-.81,.53-1.29,.58-.7,.07-1.4,.15-2.09,.21-.62,.06-1.25,.12-1.87,.17-.6,.05-1.21,.11-1.81,.15-.54,.04-1.07,.09-1.61,.12-.53,.03-1.06,.02-1.58,.03-1.07,.02-2.13,.04-3.2,.06-1,.01-2,.02-3,.03-.96,0-1.92,.03-2.88,.03-.88,0-1.77-.01-2.65-.01-.6,0-1.19,0-1.79,0-.61,0-1.23-.02-1.84-.02-.59,0-1.17,.02-1.76,.02-.28,0-.56,0-.84-.01-.4,0-.81,0-1.21-.01-.49,0-.98-.03-1.47-.02-1.06,.02-2.11,.07-3.17,.08-.39,0-.79-.04-1.18-.05-.55-.01-1.09-.02-1.64-.02-.74,0-1.47-.07-2.2-.24-.54-.13-1.08-.18-1.63-.26-.17-.03-.34-.06-.51-.1-.24-.06-.3-.15-.27-.44,0-.05,0-.11,.02-.19-.12-.04-.23-.09-.35-.13-.21-.08-.26-.14-.27-.4-.06-1.53-.12-3.05-.17-4.58-.04-1.33-.06-2.66-.11-3.99-.05-1.26-.13-2.52-.17-3.79-.04-1.23-.03-2.46-.05-3.7-.02-1.01-.04-2.03-.08-3.04-.04-1.06-.1-2.11-.16-3.17-.05-1-.12-2-.16-3-.03-.83-.02-1.66-.02-2.48,0-.27-.08-.53-.02-.81,.04-.2,.14-.31,.29-.38,.16-.08,.24-.03,.41,.24Zm41,28.79l.02-.09c-.08-.06-.15-.12-.23-.18-.41-.3-.84-.58-1.24-.89-1.48-1.14-2.95-2.29-4.42-3.45-1.08-.84-2.14-1.7-3.21-2.56-1.56-1.25-3.18-2.42-4.82-3.54-.44-.3-.88-.58-1.31-.89-.63-.46-1.25-.95-1.88-1.4-.36-.26-.75-.49-1.13-.72-.22-.13-.43-.16-.66-.01-.2,.13-.41,.23-.61,.36-.42,.26-.85,.34-1.3,.09-.23-.13-.47-.26-.69-.4-.31-.19-.31-.2-.59,.09-.12,.12-.24,.25-.37,.36-1.5,1.28-3.04,2.49-4.63,3.62-1.3,.93-2.58,1.9-3.86,2.87-.98,.74-1.94,1.5-2.93,2.22-.31,.22-.37,.48-.37,.86-.02,1.36-.06,2.73-.1,4.09,0,.12,0,.23,0,.35,.04,.02,.07,.03,.1,.04,.89,.04,1.78,.06,2.67,.01,.83-.04,1.65-.07,2.48-.07,1.04,0,2.08,.03,3.12,.04,1.29,.01,2.58,.01,3.87,.02,.27,0,.54,.02,.81,.02,.29,0,.58-.02,.87-.02,1.08,0,2.16,0,3.23,0,.94,0,1.88-.05,2.83-.06,1.09-.01,2.17,0,3.26,0,.82,0,1.63-.03,2.45-.06,.97-.03,1.94-.06,2.91-.13,1.59-.12,3.18-.28,4.78-.43,.33-.03,.66-.08,.99-.12ZM9.48,16.55v.06s.05,.07,.08,.1c.31,.24,.62,.48,.94,.7,1.07,.72,2.17,1.4,3.18,2.26,.67,.57,1.36,1.1,2.06,1.62,.92,.69,1.86,1.36,2.8,2.03,1.27,.91,2.54,1.82,3.81,2.73,.63,.45,1.26,.93,1.91,1.35,.86,.57,1.75,1.11,2.62,1.66,.67,.43,1.34,.85,2.01,1.28,.2,.13,.41,.24,.59,.4,.12,.11,.24,.15,.37,.11,.25-.07,.51-.13,.74-.25,.46-.24,.91-.51,1.36-.79,1.25-.79,2.51-1.58,3.75-2.38,.96-.62,1.93-1.23,2.87-1.88,1.74-1.19,3.47-2.4,5.19-3.61,1.24-.87,2.48-1.76,3.72-2.64,.74-.53,1.49-1.05,2.23-1.57,.4-.28,.81-.54,1.22-.81,.09-.06,.21-.09,.25-.26-.1,0-.17-.01-.25-.01-.73,.02-1.46,.04-2.19,.06-1.66,.04-3.33,.1-4.99,.13-1.94,.03-3.89,.05-5.83,.04-1.1,0-2.19-.06-3.29-.11-1.05-.05-2.1-.12-3.14-.17-.46-.02-.92-.01-1.39-.04-.96-.05-1.92-.14-2.88-.15-1.05-.01-2.1,.05-3.14,.09-.58,.02-1.15,.06-1.73,.07-.54,.01-1.08,0-1.62,.02-.84,.03-1.67,.09-2.51,.11-.71,.02-1.42,0-2.14,.01-1.07,.02-2.14,.05-3.2,.07-1.04,.02-2.08-.06-3.11-.19-.1-.01-.2-.01-.3-.02Zm22.69,13.91c.15,.1,.24,.16,.33,.22,.45,.29,.93,.54,1.35,.87,.97,.75,1.99,1.41,2.99,2.1,1.18,.82,2.35,1.66,3.5,2.53,1.12,.85,2.2,1.76,3.31,2.63,1.25,.98,2.5,1.96,3.76,2.93,.84,.65,1.7,1.27,2.55,1.91,.3,.23,.6,.46,.91,.7,.08,.06,.17,.12,.28,.2,.02-.12,.03-.2,.03-.27,0-.27,0-.54,.01-.81,.08-1.15,.17-2.31,.24-3.46,.08-1.2,.14-2.39,.2-3.59,0-.14,0-.28,.01-.43,.13-1.7,.27-3.39,.37-5.09,.08-1.39,.12-2.79,.18-4.18,.05-1.22,.1-2.44,.18-3.66,.07-1.13,.19-2.26,.28-3.39,.08-.96,.15-1.91,.22-2.87,0-.05-.01-.1-.02-.17-.09,.05-.16,.08-.23,.12-1.5,1-3.01,1.99-4.5,3.02-1.37,.94-2.72,1.93-4.09,2.89-1.38,.96-2.76,1.91-4.14,2.85-1.28,.87-2.57,1.72-3.86,2.56-.95,.61-1.93,1.18-2.89,1.77-.31,.19-.62,.39-.99,.62Zm-22.17,14.01c.36-.21,.67-.43,.97-.68,.06-.05,.09-.17,.1-.25,.02-.18,.01-.37,.02-.56,.03-1.82,.05-3.64,.11-5.46,.03-1.09,.12-2.18,.19-3.26,.04-.64,.1-1.28,.16-1.92,0-.11,.03-.22,.07-.32,.04-.13,.15-.19,.26-.14,.07,.03,.13,.12,.15,.2,.03,.09,.02,.19,.01,.29-.02,.27-.04,.54-.06,.82-.16,1.92-.26,3.85-.31,5.78-.03,1.32,0,2.64,0,3.96,0,.07,.02,.14,.03,.26,.26-.23,.48-.44,.71-.63,.17-.14,.24-.3,.24-.55,.01-2.04-.02-4.08,.12-6.12,.03-.46,.06-.91,.2-1.35l.3-.02c-.02,1.22-.06,2.41-.07,3.61-.01,1.21,0,2.41,0,3.69,.25-.22,.44-.4,.64-.55,.2-.14,.29-.32,.3-.59,.03-.86,.07-1.72,.12-2.58,.01-.2,.06-.41,.11-.61,.03-.11,.11-.18,.22-.15,.1,.03,.14,.1,.14,.22,0,.08,.01,.15,0,.23-.02,.8-.04,1.59-.06,2.39,0,.11,0,.22,0,.42,.25-.23,.5-.37,.62-.59,.11-.2,.09-.5,.13-.78l.19-.2,.2,.61c.07-.05,.13-.09,.19-.13,.49-.37,.97-.74,1.46-1.11,.63-.48,1.26-.97,1.89-1.44,.96-.71,1.92-1.42,2.88-2.12,.77-.56,1.55-1.1,2.31-1.68,.83-.63,1.64-1.29,2.46-1.95,.24-.19,.47-.4,.73-.62-.07-.06-.11-.11-.16-.14-.63-.39-1.27-.77-1.9-1.18-.8-.52-1.6-1.04-2.39-1.58-1-.69-2-1.4-2.99-2.11-1.38-.98-2.75-1.96-4.12-2.96-.62-.45-1.24-.92-1.85-1.4-.51-.4-1-.85-1.52-1.24-.61-.46-1.24-.88-1.86-1.32-.59-.42-1.22-.75-1.75-1.27-.03-.03-.08-.03-.16-.05,0,.17,0,.31,0,.45,.02,.76,.05,1.53,.08,2.29,.02,.5,.04,1,.07,1.5,.07,1.2,.17,2.39,.22,3.59,.06,1.26,.08,2.53,.1,3.79,.02,1.01,.02,2.03,.05,3.04,.04,1.21,.1,2.42,.14,3.63,.05,1.49,.1,2.99,.14,4.48,.05,1.43,.1,2.86,.15,4.35Zm5.13,1.04l.19-4.61c-.21,.16-.37,.29-.53,.4-.11,.08-.15,.18-.16,.32,0,.26-.02,.52-.03,.78-.06,.92-.12,1.85-.18,2.77,0,.1-.02,.21-.04,.33h.74Zm-1.27,0c.08-1.18,.2-2.34,.2-3.57-.25,.23-.46,.41-.67,.59-.13,.11-.17,.24-.17,.42,0,.82-.04,1.63-.2,2.46,.29,.09,.56,.15,.85,.1Zm-1.3-2.23c-.31,.28-.59,.52-.86,.77-.03,.02-.05,.07-.05,.11-.03,.33-.05,.66-.08,1.02,.36,.04,.67,.15,.99,.15v-2.06Zm-1.52,1.31l-.73,.46c.25,.14,.46,.08,.68,.04l.04-.49Z"/><path class="cls-1" d="M10.32,45.04l.73-.46"/><path class="cls-1" d="M37.67,37.07c.41,.06,.73,.33,1.07,.57,1.27,.91,2.45,1.96,3.67,2.95,.74,.6,1.47,1.24,2.21,1.84,.22,.18,.47,.33,.71,.49,.21,.14,.28,.28,.22,.43-.07,.15-.22,.17-.43,.06-.47-.24-.89-.56-1.3-.9-.59-.49-1.18-.97-1.77-1.46-.78-.65-1.57-1.3-2.35-1.95-.57-.48-1.15-.95-1.73-1.42-.09-.07-.17-.14-.25-.22-.12-.12-.13-.25-.04-.4Z"/><path class="cls-1" d="M43.49,43.08c-.25-.02-.44-.14-.63-.27-1.36-.9-2.6-1.98-3.9-2.98-.22-.17-.45-.33-.67-.48,0-.04-.01-.07,0-.09,.1-.35,.1-.35,.42-.21,.57,.26,1.06,.67,1.56,1.04,.84,.63,1.68,1.26,2.52,1.9,.2,.15,.4,.3,.6,.46,.29,.22,.3,.27,.1,.64Z"/><path class="cls-1" d="M29.27,28.57c0,.25-.15,.39-.32,.31-.15-.07-.3-.15-.44-.24-.86-.58-1.72-1.16-2.57-1.74-1.36-.93-2.66-1.96-3.94-3.02-.79-.65-1.57-1.29-2.36-1.93-.16-.13-.33-.22-.49-.34-.07-.06-.13-.15-.2-.22-.08-.07-.11-.17-.06-.25,.07-.1,.17-.13,.29-.07,.34,.19,.71,.36,1.02,.59,.69,.51,1.36,1.07,2.04,1.6,1.05,.81,2.1,1.62,3.15,2.42,.58,.44,1.17,.87,1.77,1.29,.57,.4,1.16,.78,1.73,1.17,.11,.07,.2,.16,.29,.26,.05,.05,.07,.13,.08,.16Z"/><path class="cls-1" d="M33.48,28.2c-.18,0-.32-.08-.35-.21-.03-.14,0-.27,.11-.35,.16-.12,.33-.22,.49-.35,1.09-.87,2.18-1.76,3.27-2.63,1.48-1.18,2.96-2.36,4.44-3.53,.29-.23,.6-.44,.9-.64,.23-.16,.41-.14,.49,.02,.06,.12,0,.25-.23,.43-1.01,.79-2.02,1.56-3.02,2.36-.89,.72-1.76,1.48-2.65,2.2-1.05,.85-2.11,1.69-3.16,2.52-.1,.08-.22,.13-.29,.17Z"/><path class="cls-1" d="M21.55,20.82c.05,.02,.15,.06,.25,.11,.76,.4,1.46,.93,2.13,1.49,1.11,.92,2.27,1.75,3.45,2.55,.53,.36,1.02,.79,1.52,1.18,.04,.03,.08,.07,.11,.11,.1,.13,.12,.27,.04,.39-.09,.14-.21,.18-.35,.09-.17-.1-.33-.22-.49-.34-.51-.37-1.02-.75-1.53-1.11-.89-.62-1.79-1.23-2.63-1.94-.85-.72-1.72-1.43-2.65-2.03-.12-.08-.16-.18-.13-.32,.03-.13,.12-.19,.29-.18Z"/><path class="cls-1" d="M49.46,22.65c.2,.05,.25,.22,.25,.42,0,.26-.03,.52-.05,.78-.11,1.47-.25,2.93-.34,4.4-.12,1.92-.2,3.85-.3,5.78-.03,.56-.06,1.11-.11,1.66-.02,.26-.1,.37-.26,.41-.17,.04-.27-.03-.29-.22-.02-.14,0-.28,0-.42,.04-.81,.07-1.61,.11-2.42,.04-.78,.07-1.57,.12-2.35,.09-1.4,.17-2.81,.28-4.21,.06-.86,.17-1.71,.25-2.57,.03-.29,.07-.58,.09-.88,.01-.2,.09-.33,.25-.39Z"/><path class="cls-1" d="M46.68,23.37l.28-.09c.13,.08,.16,.19,.13,.34-.02,.13-.03,.26-.03,.39-.04,.99-.08,1.98-.11,2.97-.02,.62-.03,1.24-.07,1.86-.08,1.54-.18,3.09-.27,4.63-.02,.28-.04,.57-.06,.85,0,.09-.03,.19-.07,.28-.06,.13-.16,.18-.29,.16-.14-.03-.19-.14-.2-.28-.01-.16,0-.33,0-.49,.09-1.53,.18-3.07,.27-4.6,.08-1.3,.15-2.61,.23-3.91,.05-.7,.12-1.41,.18-2.11Z"/><path class="cls-1" d="M48.14,23.08c.1,.64,.05,1.25,0,1.87-.13,1.65-.29,3.3-.39,4.95-.1,1.6-.16,3.2-.24,4.8,0,.06-.01,.13-.03,.19-.05,.15-.2,.27-.31,.25-.11-.02-.22-.16-.22-.34,0-.43,0-.85,.02-1.28,.04-.95,.09-1.89,.15-2.84,.07-1.03,.15-2.06,.24-3.09,.09-1.02,.22-2.03,.33-3.05,.04-.41,.09-.82,.14-1.23,.03-.24,.03-.23,.31-.23Z"/><path class="cls-1" d="M25.3,31.22s-.12-.06-.19-.11c-.68-.49-1.36-.98-2.04-1.49-1-.76-2.02-1.47-3.06-2.15-1.23-.8-2.44-1.62-3.66-2.43-.57-.38-1.15-.75-1.73-1.12-.07-.04-.14-.08-.2-.14-.11-.11-.14-.27-.08-.38,.07-.12,.18-.17,.33-.1,.23,.11,.46,.22,.68,.36,.79,.5,1.57,1.02,2.36,1.52,.51,.33,1.03,.64,1.54,.97,.63,.41,1.27,.82,1.89,1.26,.94,.66,1.87,1.35,2.79,2.03,.5,.37,1,.74,1.49,1.13,.09,.07,.17,.21,.19,.34,.04,.19-.1,.33-.32,.31Z"/></g></g></svg>