<?xml version="1.0" encoding="UTF-8"?><svg id="Calque_2" xmlns="http://www.w3.org/2000/svg" viewBox="0 0 61.2 61.2"><defs><style>.cls-1{fill:#fff;}.cls-2{fill:#85735a;}</style></defs><g id="Calque_2-2"><circle class="cls-2" cx="30.6" cy="30.6" r="30.6"/><g><path class="cls-1" d="M23.99,50.97l.09-.06c-.01-.2-.39-.2-.29-.47l-.18,.11-.05-.03,.15-.27-.17-.26-.18,.04c-.16-.18-.13-.38-.06-.62l-.19,.09s-.05-.04-.07-.06c-.2-.37-.39-.74-.58-1.11-.05-.1-.08-.21-.13-.32-.02-.05-.06-.09-.1-.14-.05-.06-.12-.12-.14-.19-.09-.31-.34-.55-.48-.85-.19-.4-.45-.78-.66-1.18-.16-.3-.3-.6-.46-.9-.17-.33-.36-.65-.53-.98-.09-.18-.17-.37-.29-.54-.04-.06-.1-.11-.14-.16-.02-.03-.06-.08-.05-.09,.24-.25-.08-.41-.13-.62,0-.03-.05-.06-.06-.09-.17-.54-.44-1.04-.66-1.56-.29-.69-.6-1.37-.9-2.05-.33-.75-.65-1.5-.96-2.26-.32-.76-.61-1.53-.92-2.3-.12-.3-.26-.59-.38-.89-.34-.81-.68-1.61-.99-2.43-.08-.22-.13-.44-.24-.65-.08-.16-.07-.35-.12-.53-.16-.55-.34-1.09-.48-1.64-.1-.38-.15-.77-.22-1.15-.06-.31-.14-.62-.21-.93-.06-.32-.12-.64-.18-.96-.07-.43-.13-.85-.18-1.28-.04-.29-.07-.57-.08-.86-.03-.67-.06-1.34-.05-2.01,.01-.53,.1-1.06,.16-1.6,.02-.2,.02-.4,.04-.6,.03-.24,.06-.47,.12-.71,.18-.77,.34-1.54,.58-2.29,.18-.56,.45-1.1,.7-1.64,.33-.7,.72-1.38,1.19-2.01,.61-.82,1.32-1.57,2.11-2.26,.33-.29,.66-.59,1.03-.84,.36-.25,.76-.45,1.15-.66,.66-.35,1.37-.62,2.1-.86,.72-.24,1.46-.39,2.19-.55,.53-.11,1.06-.2,1.6-.29,.27-.04,.54-.05,.81-.07,.49-.04,.97-.1,1.46-.13,.36-.02,.72,0,1.09-.02,.48-.02,.96-.06,1.44-.09,.28-.01,.57-.01,.85,0,.89,.02,1.78,.09,2.65,.24,.52,.09,1.02,.23,1.53,.35,.54,.14,1.07,.29,1.6,.43,.33,.09,.66,.18,1,.27,1.07,.28,2.08,.67,3.03,1.19,.77,.42,1.48,.9,2.11,1.46,.34,.3,.64,.63,.94,.95,.71,.76,1.34,1.56,1.86,2.43,.67,1.12,1.22,2.28,1.55,3.51,.13,.48,.29,.96,.41,1.44,.06,.22,.08,.45,.1,.68,.08,.89,.17,1.78,.22,2.67,.03,.47-.01,.93-.04,1.4-.01,.3-.03,.61-.08,.91-.1,.68-.2,1.36-.34,2.03-.23,1.17-.63,2.3-1.1,3.41-.46,1.1-1.02,2.16-1.63,3.2-.08,.14-.14,.28-.2,.43-.55,1.28-1.33,2.46-2.04,3.68-.36,.61-.71,1.23-1.09,1.84-.31,.5-.67,.97-.97,1.47-.4,.65-.76,1.32-1.16,1.97-.34,.56-.71,1.1-1.06,1.66-.44,.71-.88,1.41-1.3,2.13-.36,.61-.73,1.22-1.15,1.81-.45,.64-.86,1.3-1.27,1.95-.43,.69-.91,1.36-1.44,1.99-.42,.5-.78,1.04-1.16,1.57-.41,.57-.81,1.14-1.22,1.71-.36,.49-.71,.99-1.11,1.46-.24,.29-.56,.54-.86,.79-.19,.15-.44,.11-.66,.03-.22-.08-.42-.19-.62-.31-.09-.05-.15-.14-.2-.22-.38-.63-.76-1.25-1.14-1.88-.26-.43-.51-.87-.77-1.3-.2-.33-.41-.65-.62-.98-.27-.41-.54-.83-.83-1.23-.08-.11-.21-.2-.34-.31Zm4.74,5.81c.3-.26,.6-.48,.8-.78,.14-.2,.29-.41,.43-.61,.48-.66,.96-1.31,1.43-1.97,.09-.12,.17-.24,.14-.4,0-.05,.05-.12,.09-.17,.19-.22,.41-.43,.58-.66,.38-.49,.81-.96,1.07-1.52,.03-.06,.08-.12,.14-.16,.36-.28,.59-.64,.81-1.01,.4-.65,.81-1.3,1.22-1.95,.14-.23,.33-.43,.47-.66,.36-.59,.7-1.2,1.05-1.8,.61-1.06,1.2-2.12,1.81-3.17,.25-.44,.51-.87,.81-1.29,.9-1.25,1.77-2.52,2.51-3.86,.34-.61,.73-1.21,1.08-1.82,.06-.11,.08-.23,.11-.35,.03-.13,.03-.27,.08-.39,.19-.46,.39-.92,.59-1.38,.57-1.36,1.12-2.73,1.72-4.09,.86-1.94,1.24-3.96,1.33-6.03,.03-.7-.04-1.4-.08-2.1-.02-.35-.05-.71-.14-1.06-.26-1.11-.47-2.23-.91-3.3-.47-1.15-.96-2.27-1.78-3.27-.59-.71-1.19-1.4-2.01-1.93-.28-.18-.53-.4-.8-.59-.47-.33-.88-.72-1.4-1-.86-.48-1.68-1.02-2.61-1.39-.68-.27-1.34-.57-2.09-.69-.22-.03-.43-.09-.64-.14-.91-.19-1.82-.35-2.76-.33-.63,.01-1.25-.01-1.88,.01-.68,.03-1.36,.07-2.03,.15-1.68,.19-3.23,.77-4.81,1.27-.99,.31-1.9,.77-2.76,1.33-.64,.42-1.32,.8-1.92,1.26-.93,.71-1.77,1.5-2.42,2.42-.41,.58-.77,1.19-1.11,1.8-.52,.94-.87,1.93-1.04,2.97-.11,.71-.22,1.43-.26,2.15-.04,.75,0,1.5,0,2.24,0,.13,.01,.27,.04,.4,.18,.9,.35,1.8,.57,2.69,.17,.69,.42,1.37,.63,2.06,.39,1.26,.71,2.54,1.28,3.75,.5,1.05,.91,2.14,1.36,3.22,.37,.86,.76,1.72,1.12,2.59,.54,1.33,1.05,2.67,1.57,4.01,.38,.99,.81,1.97,1.33,2.92,.44,.8,.9,1.58,1.35,2.37,.33,.58,.63,1.16,.97,1.74,.38,.65,.79,1.29,1.18,1.93,.68,1.13,1.16,2.35,1.93,3.44,.02,.02,.02,.05,.03,.08,.08,.17,.14,.34,.24,.5,.47,.77,1.01,1.51,1.39,2.32,.03,.07,.1,.12,.17,.22Z"/><path class="cls-1" d="M23.31,20.56c.03-.32,.05-.65,.11-.97,.16-.88,.44-1.73,1-2.48,.16-.22,.4-.4,.63-.58,.21-.17,.43-.33,.66-.47,.55-.34,1.15-.54,1.82-.64,.86-.13,1.71-.23,2.58-.16,.39,.03,.79,.08,1.17,.16,1.04,.22,2.05,.49,2.93,1.05,.48,.3,.84,.71,1.17,1.12,.59,.74,.88,1.57,.98,2.47,.07,.61-.09,1.18-.24,1.76-.15,.58-.36,1.13-.63,1.66-.28,.56-.67,1.06-1.13,1.51-.39,.39-.85,.72-1.34,1.02-.52,.31-1.09,.48-1.69,.62-.81,.19-1.63,.19-2.44,.02-.31-.06-.61-.15-.89-.27-.94-.42-1.85-.88-2.58-1.58-.5-.48-.93-.99-1.24-1.59-.21-.4-.44-.8-.61-1.21-.19-.46-.24-.96-.27-1.45Zm6.12-4.61c-.4,.04-.81,.06-1.21,.11-.34,.04-.67,.1-1,.16-.65,.12-1.17,.43-1.5,.95-.41,.67-.81,1.34-1.23,2-.15,.25-.24,.51-.29,.79-.08,.43-.02,.85,.04,1.26,.12,.81,.57,1.51,1.04,2.19,.49,.71,1.16,1.28,1.95,1.72,.71,.39,1.42,.79,2.3,.88,.97,.09,1.89-.04,2.75-.41,.65-.28,1.18-.7,1.63-1.19,.66-.71,1.12-1.51,1.34-2.41,.03-.14,.09-.28,.11-.42,.07-.34,.19-.68,.19-1.02-.01-.95-.28-1.83-.94-2.62-.5-.6-1.11-1.06-1.9-1.33-.54-.18-1.1-.32-1.66-.46-.53-.13-1.07-.19-1.63-.2Z"/><path class="cls-1" d="M30.38,13.84c.23-.39,.27-.4,.73-.34,.79,.1,1.52,.37,2.22,.68,.44,.2,.87,.4,1.3,.62,.92,.48,1.73,1.08,2.34,1.86,.84,1.07,1.29,2.26,1.4,3.55,.02,.27,.03,.54,.03,.8,0,.09-.04,.19-.07,.28-.05,.12-.15,.18-.31,.17-.16-.01-.24-.09-.26-.22-.04-.28-.07-.55-.1-.83-.17-1.42-.72-2.71-1.81-3.79-.62-.61-1.36-1.08-2.18-1.47-.53-.25-1.06-.51-1.6-.74-.34-.14-.72-.24-1.07-.36-.2-.07-.4-.14-.62-.22Z"/><path class="cls-1" d="M23.06,44.15c-.33,.08-.45-.11-.55-.32-.34-.74-.7-1.47-1.02-2.22-.42-.95-.82-1.9-1.22-2.86-.5-1.19-1.01-2.37-1.5-3.57-.48-1.19-.93-2.38-1.39-3.57-.09-.23-.13-.47-.2-.7-.03-.1,0-.17,.11-.21,.13-.05,.22,0,.27,.1,.08,.16,.16,.33,.23,.5,.4,.95,.78,1.89,1.19,2.84,.36,.85,.75,1.7,1.11,2.56,.32,.75,.63,1.49,.95,2.24,.44,1.04,.88,2.09,1.33,3.13,.22,.51,.45,1.02,.67,1.53,.08,.18,.16,.36,.03,.55Z"/><path class="cls-1" d="M15.4,17.87h-.23s-.03-.05-.03-.06c.05-.18,.11-.37,.16-.55,.1-.37,.26-.71,.45-1.04,.14-.23,.25-.47,.37-.71,.54-1.05,1.35-1.93,2.19-2.79,.48-.5,.99-.98,1.53-1.43,.73-.61,1.5-1.18,2.36-1.64,.66-.35,1.33-.68,2.06-.89,.75-.22,1.5-.45,2.3-.44,.2,0,.39,.02,.55,.14,.11,.08,.15,.17,.1,.28-.06,.12-.18,.19-.32,.15-.55-.16-1.06,0-1.58,.1-1.48,.32-2.77,.94-3.94,1.78-1.67,1.2-3.13,2.58-4.26,4.2-.41,.59-.72,1.22-1.08,1.83-.17,.29-.37,.56-.55,.85-.03,.05-.05,.12-.09,.2Z"/><path class="cls-1" d="M44.24,26.96c.15,.07,.25,.14,.16,.29-.16,.28-.31,.56-.46,.83-.29,.55-.58,1.1-.87,1.64-.56,1.04-1.15,2.08-1.7,3.12-.68,1.29-1.34,2.59-2.02,3.88-.36,.68-.72,1.36-1.08,2.04-.06,.11-.13,.22-.21,.33-.07,.11-.17,.14-.31,.1-.14-.05-.22-.13-.17-.27,.04-.12,.09-.24,.15-.35,.41-.8,.82-1.59,1.24-2.39,.88-1.67,1.74-3.34,2.64-4.99,.5-.93,1.06-1.83,1.59-2.75,.19-.33,.39-.67,.58-1,.11-.19,.25-.36,.45-.49Z"/><path class="cls-1" d="M36.75,42.98l-.09,.06c.01,.09,.06,.18,.03,.23-.39,.58-.8,1.16-1.2,1.74-.4,.57-.8,1.15-1.19,1.72-.61,.89-1.21,1.78-1.81,2.67-.36,.54-.71,1.08-1.07,1.62-.35,.53-.7,1.06-1.06,1.59-.03,.04-.05,.08-.09,.12-.11,.12-.35,.15-.48,.07-.14-.09-.13-.22-.06-.34,.17-.3,.36-.6,.55-.89,.78-1.17,1.55-2.34,2.34-3.5,.51-.74,1.05-1.46,1.58-2.19,.58-.79,1.16-1.58,1.74-2.37,.12-.16,.26-.31,.4-.46,.1-.11,.23-.16,.41-.08Z"/><path class="cls-1" d="M19.17,31.6l.27-.07-.36-.02,.23-.24c.2,.11,.28,.27,.36,.43,.26,.56,.52,1.12,.76,1.68,.29,.69,.55,1.4,.85,2.09,.53,1.26,1.08,2.51,1.62,3.77,.22,.51,.43,1.03,.65,1.54,.03,.08,.06,.17,.07,.25,.03,.19-.07,.33-.24,.36-.16,.03-.29-.04-.37-.22-.14-.3-.26-.61-.4-.92-.2-.45-.4-.89-.59-1.34-.52-1.25-1.05-2.51-1.55-3.77-.41-1.02-.79-2.06-1.17-3.09-.05-.14-.09-.29-.13-.45Z"/><path class="cls-1" d="M26.52,27.43c-.08-.03-.23-.08-.35-.15-.65-.41-1.24-.89-1.76-1.42-.64-.65-1.18-1.36-1.57-2.15-.25-.51-.44-1.04-.53-1.6-.03-.2-.05-.4-.07-.6-.01-.24,.11-.36,.34-.37,.17,0,.25,.09,.3,.31,.09,.39,.16,.8,.29,1.18,.32,.93,.89,1.76,1.61,2.49,.57,.58,1.2,1.12,1.79,1.68,.12,.11,.21,.25,.29,.4,.06,.12-.08,.23-.34,.24Z"/><path class="cls-1" d="M34.97,13.84l.17-.3c.24-.02,.46,.05,.66,.13,.52,.21,.99,.5,1.42,.83,.65,.5,1.19,1.08,1.68,1.69,.31,.39,.62,.8,.86,1.22,.21,.37,.34,.77,.48,1.16,.04,.11,.03,.26-.04,.35-.16,.2-.45,.14-.56-.09-.21-.43-.41-.87-.66-1.28-.19-.31-.45-.59-.69-.87-.62-.76-1.28-1.49-2.13-2.07-.3-.2-.63-.38-.94-.57-.09-.05-.16-.12-.24-.19Z"/><path class="cls-1" d="M39.61,32.11c.05,.42-.25,.73-.42,1.07-.57,1.12-1.17,2.23-1.74,3.36-.46,.9-.96,1.79-1.5,2.66-.03,.04-.05,.08-.09,.12-.13,.16-.23,.18-.39,.11-.15-.07-.18-.15-.11-.32,.09-.2,.19-.39,.3-.58,.44-.79,.88-1.59,1.32-2.38,.62-1.13,1.22-2.25,1.84-3.38,.09-.17,.21-.34,.32-.5,.1-.13,.23-.23,.46-.16Z"/></g></g></svg>