<?xml version="1.0" encoding="UTF-8"?><svg id="Calque_2" xmlns="http://www.w3.org/2000/svg" viewBox="0 0 53.65 52.88"><defs><style>.cls-1{fill:#f4ecde;}.cls-2{fill:#85735a;}.cls-3{fill:none;stroke:#85735a;stroke-miterlimit:10;stroke-width:1.14px;}</style></defs><g id="Calque_2-2"><ellipse class="cls-2" cx="26.82" cy="26.44" rx="26.82" ry="26.44"/><path class="cls-1" d="M8.02,40.83l39.7,.09c.24-1.49,.4-4.06-.95-6.78-2.91-5.86-10.39-7.62-12.84-8.2-.68-.16-8.76-1.96-16.44,1.43-1.11,.49-3.33,1.58-5.56,3.63-.95,.87-2.6,2.62-3.45,5.24-.62,1.89-.58,3.53-.46,4.6Z"/><rect class="cls-1" x="26.11" y="17.23" width="2.74" height="13.5"/><path class="cls-1" d="M27.86,18.87c-3.3,1.43-7.2,1.08-10.18-.91-3.01-2.02-4.63-5.43-4.2-8.86,3.31-1.45,7.22-1.1,10.21,.92,3,2.03,4.61,5.43,4.17,8.86Z"/><path class="cls-1" d="M38.58,16.41c-4.44,4.16-10.78,2.92-11.22,2.82-.51-3.46,1.11-6.93,4.18-8.94,3.05-2,7.05-2.25,10.33-.64-.1,1.01-.54,4.18-3.29,6.76Z"/><line class="cls-3" x1="16.36" y1="11.42" x2="24.29" y2="16.66"/><line class="cls-3" x1="38.52" y1="11.25" x2="30.45" y2="17.23"/><line class="cls-3" x1="47.88" y1="34" x2="37.85" y2="33.8"/><line class="cls-3" x1="20.43" y1="30.83" x2="10.4" y2="30.63"/><line class="cls-3" x1="18.69" y1="33.22" x2="8.66" y2="33.02"/><line class="cls-3" x1="24.08" y1="28.73" x2="14.05" y2="28.53"/></g></svg>