<?xml version="1.0" encoding="UTF-8"?><svg id="Calque_2" xmlns="http://www.w3.org/2000/svg" viewBox="0 0 60.88 42.83"><defs><style>.cls-1{fill:#f4ecde;}.cls-2{fill:#2d2e2e;}</style></defs><g id="Calque_2-2"><rect class="cls-2" x="27.09" y="15.33" width="5.24" height="27.49"/><path class="cls-2" d="M30.5,23.37c-1.57,.65-9.01,3.57-17.13,0C2.19,18.46,.12,5.85,0,5.06,7.39-1.43,17.84-1.59,24.52,4.09c5.24,4.45,7.52,11.96,5.98,19.28Z"/><path class="cls-2" d="M43.75,24.04c-6.29,1.96-11.81,.76-14.43,0-.11-.46-2.54-11.57,4.92-18.6,6.63-6.25,18.2-6.54,26.63,.35-.38,1.29-4.5,14.32-17.12,18.25Z"/><path class="cls-1" d="M30.3,19.25L15.06,10.57l-2.15-1.22c-.63-.36-2.01,.61-1.19,1.07l15.24,8.68,2.15,1.22c.63,.36,2.01-.61,1.19-1.07h0Z"/><path class="cls-1" d="M38.41,18.6l10.38-6.74,1.48-.96c.44-.29-.3-1.2-.76-.9l-10.38,6.74-1.48,.96c-.44,.29,.3,1.2,.76,.9h0Z"/><path class="cls-1" d="M10.35,5.89l10.7,6.09,1.51,.86c.32,.18,.86,.31,1.19,.08s.11-.56-.16-.71L12.89,6.12l-1.51-.86c-.32-.18-.86-.31-1.19-.08s-.11,.56,.16,.71h0Z"/></g></svg>