<?xml version="1.0" encoding="UTF-8"?><svg id="Calque_2" xmlns="http://www.w3.org/2000/svg" viewBox="0 0 60.88 42.83"><defs><style>.cls-1{fill:#f4ecde;}.cls-2{fill:#d99a6f;}</style></defs><g id="Calque_2-2"><rect class="cls-2" x="27.09" y="15.33" width="5.24" height="27.49"/><path class="cls-2" d="M30.5,23.37c-1.57,.65-9.01,3.57-17.13,0C2.19,18.46,.12,5.85,0,5.06,7.39-1.43,17.84-1.59,24.52,4.09c5.24,4.45,7.52,11.96,5.98,19.28Z"/><path class="cls-2" d="M43.75,24.04c-6.29,1.96-11.81,.76-14.43,0-.11-.46-2.54-11.57,4.92-18.6,6.63-6.25,18.2-6.54,26.63,.35-.38,1.29-4.5,14.32-17.12,18.25Z"/><path class="cls-1" d="M30.46,19.37L15.22,10.69l-2.15-1.22c-.34-.2-1.36,.92-1.51,.84l15.24,8.68,2.15,1.22c.34,.2,1.36-.92,1.51-.84h0Z"/><path class="cls-1" d="M38.75,18.57l10.38-6.74,1.48-.96c.33-.22-1.05-1.1-1.44-.85l-10.38,6.74-1.48,.96c-.33,.22,1.05,1.1,1.44,.85h0Z"/><path class="cls-1" d="M11.06,6.19l10.7,6.09,1.51,.86c.28,.16,.42,.06,.34-.25-.09-.34-.42-.8-.73-.98L12.18,5.82l-1.51-.86c-.28-.16-.42-.06-.34,.25,.09,.34,.42,.8,.73,.98h0Z"/></g></svg>