<?xml version="1.0" encoding="UTF-8"?><svg id="Calque_2" xmlns="http://www.w3.org/2000/svg" viewBox="0 0 34.04 52.37"><defs><style>.cls-1{fill:#9b8d7e;}.cls-2{fill:#5c5143;}</style></defs><g id="Calque_2-2"><path class="cls-2" d="M15.33,51.66c-2.08-2.74-4.2-6.01-6.07-9.82-.71-1.44-1.33-2.85-1.86-4.2-1.14-2.8-2.28-5.6-3.42-8.4-.79-1.03-1.77-2.56-2.46-4.56-.63-1.81-.81-3.41-.84-4.59-.39-1.26-.55-2.35-.62-3.14-.08-.86-.22-3.37,.78-6.33,.4-1.19,.85-2.04,1.01-2.34,.62-1.14,1.29-2.03,1.85-2.67,.8-.73,2.1-1.74,3.96-2.49,1.06-.43,2.05-.67,2.86-.81,.88-.37,2.03-.77,3.42-1.03,2.14-.4,3.97-.3,5.21-.14,.99,.08,2.36,.28,3.89,.81,1.56,.54,2.74,1.23,3.55,1.77,.74,.54,1.48,1.08,2.22,1.62l2.02,1.96c.59,.84,1.25,1.95,1.79,3.31,.5,1.26,.77,2.41,.91,3.35,.28,.87,.57,2.16,.5,3.72-.09,1.87-.66,3.34-1.1,4.24-.19,1.29-.54,2.87-1.23,4.61-.95,2.38-2.2,4.23-3.25,5.53-1.95,3.2-3.9,6.39-5.85,9.59l-7.25,10.02Z"/><g><path class="cls-1" d="M11.08,45.91l.08-.06c-.01-.2-.35-.2-.26-.48l-.17,.11-.05-.03,.14-.27-.16-.27-.16,.04c-.14-.18-.12-.39-.05-.63l-.17,.1s-.05-.04-.06-.06c-.18-.38-.35-.76-.53-1.14-.05-.1-.07-.22-.11-.33-.02-.05-.06-.1-.09-.14-.04-.06-.11-.12-.13-.19-.08-.32-.31-.57-.44-.87-.18-.41-.4-.8-.6-1.21-.15-.3-.27-.62-.42-.93-.16-.34-.32-.67-.48-1-.09-.18-.15-.38-.26-.55-.04-.06-.09-.11-.13-.16-.02-.03-.06-.09-.05-.1,.22-.26-.07-.42-.12-.63,0-.03-.05-.06-.06-.1-.15-.55-.4-1.07-.59-1.6-.26-.7-.55-1.4-.82-2.1-.29-.77-.59-1.54-.87-2.31-.29-.78-.55-1.57-.83-2.35-.11-.31-.24-.6-.35-.91-.3-.83-.62-1.65-.9-2.49-.07-.22-.12-.45-.22-.66-.08-.16-.07-.36-.11-.54-.14-.56-.3-1.11-.43-1.68-.09-.39-.13-.79-.2-1.18-.06-.32-.13-.63-.19-.95-.06-.33-.11-.66-.16-.98-.06-.44-.12-.87-.16-1.31-.03-.29-.06-.59-.07-.88-.02-.69-.06-1.38-.04-2.06,.01-.55,.09-1.09,.14-1.64,.02-.2,.02-.41,.04-.62,.03-.24,.06-.49,.11-.72,.17-.78,.31-1.57,.53-2.35,.16-.57,.41-1.12,.64-1.68,.3-.72,.65-1.41,1.08-2.06,.55-.84,1.2-1.61,1.91-2.32,.3-.3,.6-.6,.93-.86,.32-.25,.69-.46,1.04-.68,.6-.36,1.24-.64,1.9-.88,.65-.24,1.32-.4,1.99-.56,.48-.12,.96-.21,1.45-.3,.24-.04,.49-.05,.74-.08,.44-.04,.88-.1,1.32-.13,.33-.02,.66,0,.98-.02,.44-.02,.87-.06,1.31-.09,.26-.01,.52-.01,.77,0,.81,.02,1.61,.09,2.4,.24,.47,.09,.92,.23,1.38,.36,.49,.14,.97,.29,1.45,.44,.3,.09,.6,.18,.9,.27,.97,.29,1.88,.69,2.75,1.22,.7,.43,1.34,.92,1.91,1.49,.3,.31,.58,.64,.85,.97,.64,.77,1.22,1.6,1.69,2.48,.61,1.14,1.11,2.33,1.4,3.6,.12,.49,.26,.98,.37,1.48,.05,.23,.08,.46,.09,.7,.07,.91,.15,1.82,.2,2.74,.02,.48-.01,.96-.03,1.44-.01,.31-.03,.63-.07,.93-.09,.69-.19,1.39-.31,2.08-.21,1.2-.57,2.35-1,3.49-.42,1.13-.92,2.21-1.47,3.28-.07,.14-.13,.29-.18,.44-.5,1.31-1.2,2.52-1.85,3.77-.33,.63-.64,1.26-.99,1.88-.28,.51-.6,.99-.88,1.5-.36,.67-.69,1.35-1.05,2.02-.31,.57-.65,1.13-.96,1.7-.4,.72-.8,1.45-1.18,2.18-.33,.63-.66,1.25-1.04,1.85-.41,.65-.78,1.33-1.15,2-.39,.71-.82,1.39-1.3,2.04-.38,.52-.71,1.07-1.05,1.61-.37,.58-.73,1.17-1.11,1.75-.33,.51-.64,1.02-1,1.5-.22,.3-.5,.55-.78,.8-.17,.16-.4,.11-.59,.03-.2-.08-.38-.2-.56-.32-.08-.05-.13-.14-.18-.23-.35-.64-.69-1.28-1.03-1.93-.24-.44-.46-.89-.7-1.34-.18-.34-.37-.67-.56-1-.25-.42-.49-.85-.75-1.26-.07-.12-.19-.2-.31-.32Zm4.29,5.95c.27-.27,.54-.5,.73-.8,.13-.21,.26-.42,.39-.63,.43-.67,.87-1.34,1.3-2.02,.08-.12,.16-.25,.13-.41,0-.05,.04-.12,.08-.17,.17-.23,.37-.44,.53-.67,.35-.5,.73-.98,.97-1.55,.03-.06,.07-.12,.12-.17,.33-.29,.53-.66,.73-1.03,.36-.67,.73-1.33,1.1-1.99,.13-.23,.3-.44,.43-.67,.32-.61,.64-1.22,.95-1.84,.55-1.08,1.09-2.17,1.64-3.25,.23-.45,.46-.89,.73-1.32,.82-1.28,1.6-2.58,2.27-3.95,.31-.63,.66-1.24,.98-1.86,.06-.11,.07-.24,.1-.36,.03-.13,.03-.27,.07-.4,.17-.47,.36-.94,.53-1.41,.52-1.4,1.01-2.8,1.55-4.19,.78-1.99,1.13-4.06,1.2-6.18,.03-.72-.04-1.44-.07-2.15-.02-.36-.05-.73-.12-1.09-.23-1.14-.42-2.28-.82-3.38-.42-1.17-.87-2.32-1.61-3.34-.53-.73-1.08-1.43-1.82-1.98-.25-.19-.48-.41-.73-.61-.42-.34-.8-.73-1.27-1.03-.78-.49-1.52-1.04-2.37-1.42-.62-.28-1.22-.59-1.89-.71-.2-.03-.39-.09-.58-.14-.82-.2-1.65-.36-2.5-.34-.57,.01-1.13-.01-1.7,.01-.61,.03-1.23,.07-1.84,.15-1.52,.2-2.93,.79-4.36,1.3-.9,.32-1.72,.79-2.5,1.36-.58,.43-1.19,.82-1.74,1.29-.84,.73-1.61,1.53-2.19,2.48-.37,.59-.69,1.22-1,1.84-.47,.96-.79,1.98-.94,3.04-.1,.73-.2,1.47-.24,2.2-.04,.76,0,1.53,0,2.3,0,.14,.01,.28,.04,.41,.17,.92,.32,1.84,.52,2.76,.16,.71,.38,1.41,.57,2.11,.35,1.29,.64,2.6,1.16,3.84,.45,1.08,.82,2.2,1.24,3.29,.33,.89,.69,1.76,1.01,2.65,.49,1.36,.95,2.74,1.42,4.11,.35,1.02,.73,2.02,1.2,2.99,.4,.82,.82,1.62,1.22,2.43,.3,.59,.57,1.19,.87,1.78,.35,.67,.72,1.32,1.07,1.98,.62,1.16,1.05,2.4,1.75,3.52,.02,.02,.02,.06,.03,.08,.07,.17,.13,.35,.21,.51,.42,.79,.91,1.55,1.26,2.38,.03,.07,.09,.12,.16,.22Z"/><path class="cls-1" d="M10.47,14.76c.03-.33,.04-.67,.1-1,.15-.9,.4-1.77,.9-2.54,.15-.23,.36-.41,.57-.6,.19-.17,.39-.33,.6-.48,.49-.35,1.04-.56,1.64-.65,.78-.13,1.55-.24,2.34-.16,.35,.03,.71,.08,1.06,.17,.94,.23,1.86,.51,2.66,1.08,.44,.31,.76,.72,1.06,1.15,.54,.76,.8,1.61,.89,2.53,.06,.62-.08,1.21-.22,1.8-.13,.59-.32,1.15-.57,1.7-.26,.58-.61,1.09-1.02,1.55-.35,.4-.77,.74-1.21,1.04-.47,.32-.99,.49-1.53,.63-.74,.19-1.47,.19-2.21,.02-.28-.06-.56-.15-.81-.28-.85-.43-1.68-.91-2.33-1.61-.45-.49-.84-1.02-1.12-1.63-.19-.41-.4-.82-.55-1.24-.18-.47-.22-.98-.25-1.49Zm5.54-4.72c-.37,.04-.73,.06-1.1,.11-.3,.04-.61,.1-.91,.17-.59,.13-1.06,.44-1.36,.97-.37,.68-.74,1.37-1.11,2.05-.14,.25-.22,.52-.26,.81-.07,.44-.02,.87,.04,1.29,.11,.83,.52,1.54,.94,2.24,.44,.73,1.05,1.31,1.77,1.76,.65,.4,1.29,.81,2.08,.9,.88,.1,1.71-.04,2.49-.42,.58-.28,1.07-.72,1.48-1.22,.6-.73,1.01-1.55,1.21-2.47,.03-.14,.08-.29,.1-.43,.06-.35,.17-.7,.17-1.04-.01-.97-.25-1.88-.85-2.68-.46-.61-1.01-1.09-1.72-1.36-.49-.19-1-.33-1.5-.47-.48-.14-.97-.2-1.47-.21Z"/><path class="cls-1" d="M16.87,7.88c.21-.4,.25-.41,.66-.35,.72,.1,1.38,.38,2.01,.7,.4,.2,.79,.41,1.17,.64,.83,.5,1.57,1.11,2.12,1.91,.76,1.1,1.17,2.32,1.27,3.64,.02,.27,.03,.55,.03,.82,0,.1-.03,.19-.07,.28-.05,.12-.14,.18-.28,.17-.14-.01-.22-.09-.24-.22-.03-.28-.06-.57-.09-.85-.16-1.46-.65-2.78-1.64-3.88-.56-.62-1.23-1.11-1.97-1.51-.48-.26-.96-.52-1.45-.75-.31-.15-.65-.24-.97-.37-.18-.07-.36-.15-.56-.23Z"/><path class="cls-1" d="M10.24,38.93c-.3,.08-.41-.12-.49-.33-.31-.76-.63-1.51-.93-2.27-.38-.97-.74-1.95-1.11-2.93-.46-1.22-.92-2.43-1.35-3.66-.43-1.21-.85-2.44-1.26-3.66-.08-.23-.12-.48-.18-.71-.03-.1,0-.17,.1-.21,.11-.05,.2,0,.24,.1,.07,.17,.15,.34,.21,.51,.36,.97,.71,1.94,1.07,2.91,.33,.88,.68,1.74,1.01,2.62,.29,.76,.57,1.53,.86,2.3,.4,1.07,.8,2.14,1.2,3.21,.2,.53,.41,1.05,.61,1.57,.07,.18,.14,.37,.02,.56Z"/><path class="cls-1" d="M3.3,12h-.21s-.03-.05-.03-.06c.05-.19,.1-.37,.15-.56,.09-.37,.23-.73,.41-1.07,.12-.24,.22-.48,.33-.72,.49-1.07,1.22-1.97,1.98-2.86,.44-.51,.9-1,1.38-1.46,.66-.63,1.35-1.21,2.14-1.68,.6-.36,1.2-.69,1.86-.91,.68-.23,1.35-.46,2.09-.45,.18,0,.36,.02,.5,.15,.1,.08,.13,.18,.09,.29-.05,.12-.16,.2-.29,.16-.5-.16-.96,0-1.43,.11-1.34,.32-2.51,.97-3.57,1.83-1.51,1.23-2.83,2.64-3.85,4.31-.37,.6-.65,1.25-.98,1.88-.16,.29-.34,.58-.5,.87-.03,.06-.05,.12-.08,.21Z"/><path class="cls-1" d="M29.42,21.32c.14,.07,.23,.14,.15,.3-.14,.28-.28,.57-.41,.85-.26,.56-.52,1.12-.79,1.68-.51,1.07-1.04,2.13-1.54,3.2-.62,1.32-1.21,2.65-1.83,3.98-.32,.7-.65,1.39-.98,2.09-.05,.12-.12,.23-.19,.34-.06,.11-.16,.15-.28,.1-.13-.05-.2-.14-.16-.28,.04-.12,.08-.24,.13-.36,.37-.82,.74-1.63,1.12-2.44,.79-1.71,1.58-3.42,2.39-5.11,.46-.95,.96-1.88,1.44-2.81,.18-.34,.35-.68,.53-1.02,.1-.19,.23-.37,.41-.5Z"/><path class="cls-1" d="M22.64,37.73l-.08,.06c.01,.1,.05,.19,.03,.24-.36,.6-.73,1.19-1.09,1.79-.36,.59-.72,1.18-1.08,1.77-.55,.91-1.1,1.82-1.64,2.74-.33,.55-.64,1.11-.97,1.66-.32,.55-.64,1.09-.96,1.63-.02,.04-.05,.09-.08,.12-.1,.12-.32,.16-.43,.07-.13-.1-.11-.23-.05-.35,.16-.31,.32-.61,.5-.91,.7-1.2,1.4-2.4,2.12-3.59,.46-.76,.95-1.5,1.43-2.25,.52-.81,1.05-1.62,1.58-2.43,.11-.16,.23-.32,.36-.47,.09-.11,.21-.16,.37-.09Z"/><path class="cls-1" d="M6.72,26.07l.24-.07-.33-.02,.21-.24c.18,.12,.26,.28,.32,.44,.24,.57,.47,1.15,.69,1.73,.27,.71,.5,1.43,.77,2.14,.48,1.29,.98,2.58,1.47,3.86,.2,.52,.39,1.05,.59,1.58,.03,.08,.06,.17,.07,.26,.02,.19-.06,.34-.22,.37-.14,.03-.26-.05-.33-.23-.12-.31-.24-.63-.36-.94-.18-.46-.36-.91-.53-1.38-.47-1.28-.95-2.57-1.4-3.86-.37-1.05-.71-2.11-1.06-3.16-.05-.15-.08-.3-.12-.46Z"/><path class="cls-1" d="M13.38,21.8c-.07-.04-.21-.08-.32-.16-.59-.42-1.12-.91-1.59-1.46-.58-.67-1.07-1.39-1.42-2.2-.23-.53-.4-1.07-.48-1.64-.03-.2-.05-.41-.06-.62-.01-.24,.1-.37,.3-.38,.16,0,.23,.09,.28,.32,.08,.4,.14,.82,.26,1.21,.29,.95,.8,1.8,1.46,2.55,.52,.6,1.08,1.15,1.62,1.72,.11,.12,.19,.26,.26,.4,.06,.12-.07,.24-.31,.25Z"/><path class="cls-1" d="M21.03,7.88l.15-.31c.22-.02,.41,.05,.6,.13,.47,.21,.89,.51,1.28,.85,.59,.51,1.08,1.1,1.52,1.73,.28,.4,.56,.81,.78,1.25,.19,.37,.31,.79,.43,1.19,.03,.11,.03,.27-.03,.36-.14,.21-.41,.14-.51-.1-.19-.44-.37-.89-.6-1.31-.17-.32-.41-.6-.63-.9-.56-.78-1.15-1.53-1.93-2.12-.27-.21-.57-.39-.86-.59-.08-.05-.14-.13-.22-.19Z"/><path class="cls-1" d="M25.23,26.59c.04,.43-.23,.74-.38,1.09-.51,1.15-1.06,2.29-1.57,3.44-.42,.93-.87,1.83-1.36,2.72-.02,.04-.05,.09-.08,.13-.12,.16-.21,.19-.35,.11-.13-.07-.17-.15-.1-.32,.08-.2,.18-.4,.27-.59,.4-.81,.8-1.63,1.19-2.44,.56-1.15,1.11-2.31,1.67-3.46,.09-.18,.19-.35,.29-.51,.09-.14,.21-.24,.42-.16Z"/></g></g></svg>