<?xml version="1.0" encoding="UTF-8"?><svg id="Calque_2" xmlns="http://www.w3.org/2000/svg" viewBox="0 0 36.91 59.85"><defs><style>.cls-1{fill:#804647;}.cls-2{fill:#c68276;}</style></defs><g id="Calque_2-2"><path class="cls-1" d="M16.57,59.26c-2.14-3.17-4.32-6.94-6.24-11.34-.73-1.67-1.36-3.29-1.92-4.85-1.17-3.23-2.34-6.47-3.51-9.7-.81-1.19-1.82-2.96-2.53-5.27-.64-2.09-.83-3.94-.86-5.3-.4-1.46-.56-2.71-.63-3.62-.08-1-.23-3.89,.8-7.31,.41-1.37,.87-2.36,1.04-2.7,.63-1.31,1.33-2.34,1.9-3.09,.82-.85,2.15-2.01,4.07-2.88,1.09-.5,2.11-.78,2.94-.94,.9-.43,2.08-.89,3.51-1.19,2.2-.46,4.08-.34,5.35-.16,1.02,.09,2.43,.33,4,.93,1.6,.62,2.82,1.42,3.64,2.05,.76,.62,1.52,1.25,2.28,1.87l2.08,2.26c.61,.97,1.29,2.25,1.84,3.82,.52,1.46,.79,2.79,.94,3.87,.29,1,.59,2.49,.51,4.29-.09,2.16-.68,3.86-1.13,4.9-.19,1.49-.56,3.32-1.27,5.32-.98,2.75-2.26,4.89-3.34,6.39-2,3.69-4.01,7.38-6.01,11.08l-7.45,11.57Z"/><g><path class="cls-2" d="M11.67,52.47l.09-.07c-.01-.23-.4-.23-.3-.55l-.19,.13-.05-.03,.16-.31-.18-.31-.18,.04c-.16-.21-.14-.44-.06-.72l-.2,.11s-.05-.05-.07-.07c-.2-.43-.41-.87-.6-1.3-.05-.12-.08-.25-.13-.37-.02-.06-.06-.11-.1-.16-.05-.07-.12-.14-.15-.22-.09-.37-.35-.65-.5-.99-.2-.47-.46-.92-.68-1.38-.17-.35-.31-.71-.48-1.06-.18-.38-.37-.76-.55-1.15-.1-.21-.17-.43-.3-.63-.04-.07-.1-.12-.15-.19-.02-.03-.07-.1-.05-.11,.25-.3-.08-.48-.14-.72,0-.04-.06-.07-.07-.11-.18-.63-.45-1.22-.68-1.83-.3-.8-.62-1.6-.93-2.4-.34-.88-.67-1.76-1-2.64-.33-.89-.63-1.79-.95-2.69-.12-.35-.27-.69-.4-1.04-.35-.95-.71-1.89-1.03-2.84-.08-.25-.14-.51-.25-.76-.09-.19-.08-.41-.13-.62-.16-.64-.35-1.27-.49-1.92-.1-.45-.15-.9-.23-1.35-.07-.36-.15-.72-.21-1.09-.07-.37-.13-.75-.18-1.13-.07-.5-.13-1-.19-1.5-.04-.34-.07-.67-.08-1.01-.03-.79-.07-1.57-.05-2.36,.01-.62,.11-1.25,.16-1.87,.02-.23,.02-.47,.05-.7,.03-.28,.07-.55,.12-.83,.19-.9,.36-1.8,.6-2.68,.18-.65,.47-1.28,.73-1.91,.34-.82,.74-1.61,1.23-2.35,.63-.96,1.37-1.84,2.19-2.65,.34-.34,.69-.69,1.07-.98,.37-.29,.78-.53,1.19-.77,.69-.42,1.42-.73,2.18-1.01,.74-.28,1.51-.46,2.27-.64,.55-.13,1.1-.24,1.65-.34,.28-.05,.56-.06,.84-.09,.5-.05,1.01-.11,1.51-.15,.37-.03,.75,0,1.12-.03,.5-.03,1-.07,1.49-.1,.29-.02,.59-.02,.88,0,.92,.02,1.84,.1,2.74,.28,.53,.1,1.06,.26,1.58,.41,.55,.16,1.1,.34,1.66,.51,.34,.11,.69,.21,1.03,.31,1.11,.33,2.15,.79,3.14,1.4,.8,.49,1.53,1.05,2.18,1.71,.35,.35,.66,.73,.97,1.11,.74,.88,1.39,1.83,1.93,2.84,.7,1.31,1.26,2.67,1.6,4.11,.13,.56,.3,1.12,.43,1.69,.06,.26,.09,.53,.11,.8,.08,1.04,.18,2.08,.23,3.13,.03,.54-.01,1.09-.04,1.64-.01,.36-.03,.71-.08,1.07-.11,.79-.21,1.59-.35,2.38-.24,1.37-.66,2.69-1.14,3.99-.48,1.29-1.06,2.53-1.68,3.74-.08,.16-.14,.33-.21,.5-.57,1.5-1.37,2.88-2.11,4.3-.37,.72-.74,1.44-1.13,2.15-.32,.58-.69,1.14-1.01,1.72-.41,.76-.78,1.55-1.2,2.31-.35,.65-.74,1.29-1.1,1.94-.46,.83-.91,1.66-1.35,2.49-.37,.72-.75,1.43-1.19,2.12-.47,.74-.89,1.52-1.31,2.29-.45,.81-.94,1.59-1.49,2.33-.43,.59-.81,1.22-1.2,1.84-.43,.66-.84,1.34-1.27,2-.37,.58-.74,1.16-1.15,1.71-.25,.34-.58,.63-.89,.92-.2,.18-.46,.12-.68,.04-.23-.09-.44-.22-.64-.36-.09-.06-.15-.17-.21-.26-.4-.73-.79-1.47-1.18-2.2-.27-.51-.53-1.02-.8-1.53-.21-.38-.42-.76-.64-1.14-.28-.48-.56-.97-.86-1.44-.08-.13-.22-.23-.36-.37Zm4.9,6.8c.31-.31,.62-.57,.83-.91,.15-.24,.3-.48,.45-.72,.49-.77,.99-1.54,1.48-2.31,.09-.14,.18-.28,.15-.47,0-.06,.05-.14,.09-.2,.2-.26,.42-.5,.6-.77,.4-.58,.84-1.13,1.11-1.78,.03-.07,.08-.14,.14-.19,.37-.33,.61-.75,.84-1.18,.42-.76,.83-1.52,1.26-2.28,.15-.26,.35-.5,.49-.77,.37-.7,.73-1.4,1.08-2.1,.63-1.24,1.24-2.48,1.87-3.71,.26-.51,.53-1.02,.84-1.5,.94-1.47,1.83-2.95,2.6-4.51,.35-.72,.75-1.41,1.12-2.13,.06-.12,.08-.27,.11-.41,.03-.15,.03-.31,.08-.45,.19-.54,.41-1.07,.61-1.61,.59-1.59,1.16-3.2,1.78-4.78,.89-2.27,1.29-4.64,1.38-7.06,.03-.82-.04-1.64-.09-2.46-.02-.42-.06-.83-.14-1.24-.27-1.3-.48-2.61-.94-3.87-.48-1.34-.99-2.65-1.84-3.82-.61-.84-1.24-1.64-2.08-2.26-.29-.21-.55-.47-.83-.7-.48-.39-.92-.84-1.45-1.17-.89-.56-1.74-1.19-2.7-1.63-.7-.32-1.39-.67-2.16-.81-.22-.04-.44-.11-.66-.16-.94-.22-1.88-.41-2.86-.39-.65,.02-1.3-.02-1.94,.01-.7,.03-1.41,.08-2.1,.17-1.74,.23-3.35,.91-4.98,1.49-1.03,.37-1.97,.9-2.85,1.56-.66,.49-1.36,.93-1.99,1.47-.96,.83-1.84,1.75-2.51,2.83-.42,.68-.79,1.39-1.14,2.11-.54,1.1-.9,2.26-1.07,3.47-.12,.83-.23,1.67-.27,2.52-.05,.87-.01,1.75,0,2.63,0,.16,.01,.32,.04,.47,.19,1.05,.36,2.11,.59,3.15,.18,.81,.44,1.61,.65,2.41,.4,1.48,.73,2.97,1.33,4.39,.52,1.23,.94,2.51,1.41,3.76,.38,1.01,.79,2.01,1.15,3.03,.56,1.56,1.09,3.13,1.62,4.69,.4,1.16,.84,2.31,1.37,3.41,.45,.93,.94,1.85,1.4,2.78,.34,.68,.65,1.36,1,2.03,.39,.76,.82,1.51,1.22,2.26,.7,1.32,1.2,2.75,2,4.03,.02,.03,.02,.06,.04,.09,.08,.2,.15,.4,.24,.59,.48,.91,1.04,1.77,1.44,2.72,.03,.08,.1,.14,.18,.25Z"/><path class="cls-2" d="M10.97,16.87c.04-.38,.05-.76,.11-1.14,.17-1.03,.45-2.02,1.03-2.9,.17-.26,.42-.47,.65-.68,.22-.2,.45-.38,.69-.55,.57-.39,1.19-.63,1.88-.75,.89-.15,1.77-.27,2.68-.19,.41,.04,.81,.1,1.21,.19,1.07,.26,2.12,.58,3.04,1.23,.5,.36,.86,.83,1.21,1.31,.61,.87,.91,1.84,1.02,2.89,.07,.71-.09,1.38-.25,2.06-.15,.67-.37,1.32-.65,1.95-.29,.66-.7,1.24-1.17,1.77-.4,.46-.88,.84-1.39,1.19-.54,.37-1.13,.56-1.75,.72-.84,.22-1.69,.22-2.53,.03-.32-.07-.64-.17-.93-.32-.97-.49-1.92-1.04-2.67-1.84-.52-.56-.96-1.16-1.28-1.86-.22-.47-.45-.93-.63-1.42-.2-.54-.25-1.12-.28-1.7Zm6.33-5.39c-.42,.04-.84,.07-1.25,.13-.35,.05-.69,.12-1.04,.19-.68,.15-1.21,.5-1.55,1.11-.43,.78-.84,1.56-1.27,2.34-.16,.29-.25,.6-.3,.92-.08,.5-.02,.99,.04,1.48,.12,.95,.59,1.76,1.08,2.57,.5,.84,1.2,1.5,2.02,2.01,.74,.46,1.47,.92,2.38,1.02,1,.11,1.95-.04,2.84-.48,.67-.32,1.22-.82,1.69-1.39,.68-.83,1.16-1.77,1.38-2.82,.04-.16,.09-.33,.12-.49,.07-.4,.2-.8,.19-1.19-.01-1.11-.29-2.15-.98-3.06-.52-.7-1.15-1.25-1.97-1.55-.56-.21-1.14-.38-1.72-.54-.55-.16-1.11-.23-1.69-.24Z"/><path class="cls-2" d="M18.28,9.01c.24-.46,.28-.47,.76-.4,.82,.12,1.57,.43,2.3,.8,.45,.23,.91,.47,1.34,.73,.95,.57,1.79,1.27,2.43,2.18,.87,1.25,1.33,2.65,1.45,4.16,.02,.31,.03,.63,.03,.94,0,.11-.04,.22-.08,.33-.05,.14-.16,.21-.32,.19-.16-.01-.25-.1-.27-.25-.04-.32-.07-.65-.11-.97-.18-1.66-.74-3.17-1.87-4.44-.64-.71-1.41-1.27-2.25-1.72-.55-.3-1.09-.59-1.66-.86-.36-.17-.74-.28-1.11-.42-.21-.08-.42-.17-.64-.26Z"/><path class="cls-2" d="M10.71,44.49c-.34,.09-.46-.13-.57-.38-.36-.86-.72-1.72-1.06-2.59-.43-1.11-.85-2.23-1.27-3.35-.52-1.39-1.05-2.78-1.55-4.18-.5-1.39-.97-2.78-1.44-4.18-.09-.26-.13-.54-.21-.82-.03-.12,0-.2,.11-.24,.13-.06,.22,0,.28,.11,.09,.19,.17,.39,.24,.59,.41,1.11,.81,2.22,1.23,3.32,.38,1,.77,1.99,1.15,2.99,.33,.87,.65,1.75,.98,2.62,.46,1.22,.91,2.45,1.37,3.67,.23,.6,.47,1.19,.69,1.79,.08,.21,.16,.42,.03,.64Z"/><path class="cls-2" d="M2.78,13.72h-.24s-.04-.06-.03-.07c.05-.22,.12-.43,.17-.64,.1-.43,.26-.83,.47-1.22,.14-.27,.26-.55,.38-.83,.56-1.22,1.4-2.26,2.27-3.26,.5-.58,1.02-1.15,1.58-1.67,.75-.71,1.55-1.38,2.45-1.92,.68-.41,1.38-.79,2.13-1.04,.77-.26,1.55-.53,2.38-.51,.21,0,.41,.03,.57,.17,.11,.09,.15,.2,.1,.33-.06,.14-.18,.23-.33,.18-.57-.18-1.1,0-1.64,.12-1.53,.37-2.87,1.11-4.08,2.09-1.73,1.41-3.24,3.02-4.41,4.92-.42,.69-.74,1.43-1.12,2.15-.18,.34-.38,.66-.57,.99-.04,.06-.05,.14-.09,.24Z"/><path class="cls-2" d="M32.63,24.36c.16,.08,.26,.16,.17,.34-.16,.32-.32,.65-.47,.98-.3,.64-.6,1.28-.9,1.92-.58,1.22-1.19,2.43-1.76,3.65-.71,1.51-1.39,3.03-2.09,4.54-.37,.8-.75,1.59-1.12,2.38-.06,.13-.14,.26-.21,.38-.07,.13-.18,.17-.32,.11-.15-.06-.22-.16-.18-.32,.04-.14,.09-.28,.15-.41,.43-.93,.85-1.86,1.28-2.79,.91-1.95,1.8-3.91,2.73-5.84,.52-1.09,1.1-2.14,1.65-3.22,.2-.39,.4-.78,.6-1.17,.11-.22,.26-.42,.47-.57Z"/><path class="cls-2" d="M24.88,43.11l-.09,.07c.01,.11,.06,.21,.03,.27-.41,.68-.83,1.36-1.25,2.04-.41,.67-.83,1.34-1.23,2.02-.63,1.04-1.26,2.08-1.88,3.13-.37,.63-.74,1.27-1.11,1.9-.36,.62-.73,1.24-1.09,1.87-.03,.05-.06,.1-.09,.14-.12,.14-.36,.18-.49,.08-.14-.11-.13-.26-.06-.4,.18-.35,.37-.7,.57-1.04,.8-1.37,1.6-2.74,2.42-4.1,.52-.87,1.08-1.71,1.63-2.57,.6-.93,1.2-1.85,1.81-2.78,.12-.19,.27-.36,.41-.53,.1-.13,.24-.19,.42-.1Z"/><path class="cls-2" d="M6.68,29.79l.28-.08-.38-.03,.24-.28c.2,.13,.29,.32,.37,.5,.27,.65,.54,1.31,.79,1.97,.3,.81,.57,1.63,.88,2.45,.55,1.47,1.12,2.94,1.68,4.42,.23,.6,.45,1.2,.67,1.8,.03,.09,.06,.19,.08,.29,.03,.22-.07,.38-.25,.42-.16,.03-.3-.05-.38-.26-.14-.36-.27-.71-.41-1.07-.2-.52-.42-1.04-.61-1.57-.54-1.47-1.08-2.93-1.6-4.41-.42-1.2-.81-2.41-1.21-3.61-.06-.17-.09-.34-.14-.53Z"/><path class="cls-2" d="M14.29,24.91c-.08-.04-.24-.09-.36-.18-.68-.48-1.28-1.04-1.82-1.67-.66-.76-1.22-1.59-1.63-2.52-.26-.6-.46-1.22-.55-1.87-.03-.23-.06-.47-.07-.7-.01-.28,.11-.42,.35-.44,.18-.01,.26,.1,.31,.36,.09,.46,.16,.93,.3,1.38,.34,1.09,.92,2.06,1.67,2.91,.59,.68,1.24,1.31,1.85,1.97,.12,.13,.22,.3,.3,.46,.07,.14-.08,.27-.36,.28Z"/><path class="cls-2" d="M23.04,9.01l.17-.36c.25-.02,.47,.06,.69,.15,.54,.24,1.02,.58,1.47,.97,.67,.58,1.23,1.26,1.74,1.98,.32,.46,.64,.93,.89,1.43,.22,.43,.35,.9,.49,1.36,.04,.12,.03,.31-.04,.41-.16,.24-.46,.16-.58-.11-.22-.51-.42-1.02-.68-1.5-.2-.36-.47-.69-.71-1.02-.64-.89-1.32-1.75-2.2-2.42-.31-.24-.65-.44-.98-.67-.09-.06-.17-.14-.25-.22Z"/><path class="cls-2" d="M27.84,30.39c.05,.49-.26,.85-.44,1.25-.59,1.32-1.21,2.61-1.8,3.93-.47,1.06-.99,2.09-1.56,3.11-.03,.05-.06,.1-.09,.14-.14,.18-.24,.21-.4,.13-.15-.08-.19-.17-.11-.37,.09-.23,.2-.45,.31-.67,.45-.93,.91-1.86,1.36-2.79,.64-1.32,1.27-2.64,1.91-3.95,.1-.2,.21-.4,.34-.59,.1-.16,.24-.27,.48-.19Z"/></g></g></svg>