<?xml version="1.0" encoding="UTF-8"?><svg id="Calque_2" xmlns="http://www.w3.org/2000/svg" viewBox="0 0 62.39 42.83"><defs><style>.cls-1{fill:#f4ecde;}.cls-2{fill:#804647;}</style></defs><g id="Calque_2-2"><rect class="cls-2" x="27.76" y="15.33" width="5.37" height="27.49"/><path class="cls-2" d="M31.26,23.37c-1.61,.65-9.24,3.57-17.56,0C2.25,18.46,.12,5.85,0,5.06,7.57-1.43,18.28-1.59,25.13,4.09c5.37,4.45,7.71,11.96,6.13,19.28Z"/><path class="cls-2" d="M44.84,24.04c-6.44,1.96-12.11,.76-14.79,0-.11-.46-2.6-11.57,5.04-18.6,6.8-6.25,18.65-6.54,27.29,.35-.39,1.29-4.61,14.32-17.55,18.25Z"/><path class="cls-1" d="M31.01,19.22L15.41,10.55l-2.23-1.24c-.57-.32-1.92,.69-1.12,1.14l15.6,8.66,2.23,1.24c.57,.32,1.92-.69,1.12-1.14h0Z"/><path class="cls-1" d="M39.58,18.52l10.65-6.75,1.49-.95c.86-.55-.67-1.08-1.21-.74l-10.65,6.75-1.49,.95c-.86,.55,.67,1.08,1.21,.74h0Z"/><path class="cls-1" d="M10.55,6.17l10.95,6.08,1.56,.87c.39,.22,.89,.17,1.21-.16,.26-.26,.36-.8-.03-1.02L13.29,5.85l-1.56-.87c-.39-.22-.89-.17-1.21,.16-.26,.26-.36,.8,.03,1.02h0Z"/></g></svg>