<?xml version="1.0" encoding="UTF-8"?><svg id="Calque_2" xmlns="http://www.w3.org/2000/svg" viewBox="0 0 30.83 41.72"><defs><style>.cls-1{fill:#d99a6f;}</style></defs><g id="Calque_2-2"><g><path class="cls-1" d="M19.8,0c2.48,1.77,5.33,3.23,7.36,5.38,3.84,4.05,4.77,9.15,2.29,13.97-3.92,7.62-8.53,14.93-12.85,22.37h-2.34C9.75,33.88,4.72,26.25,.9,18.11-1.78,12.41,1.84,5.35,7.6,2.04c1.17-.67,2.33-1.36,3.49-2.04,2.9,0,5.81,0,8.71,0Zm-4.47,10.07c-3.79,.03-6.97,2.57-5.93,5.85,.75,2.36,3.52,4.76,6.01,5.82,2.42,1.03,6.57-3.21,6.28-5.96-.37-3.51-2.01-6.05-6.37-5.72Z"/><path class="cls-1" d="M15.45,11.05c1.71,2.34,3.35,3.62,3.16,4.58-.25,1.31-1.89,2.38-2.94,3.56-1.2-1.18-2.9-2.2-3.4-3.6-.28-.78,1.46-2.2,3.18-4.54Z"/></g></g></svg>