<?xml version="1.0" encoding="UTF-8"?><svg id="Calque_2" xmlns="http://www.w3.org/2000/svg" viewBox="0 0 60.88 42.83"><defs><style>.cls-1{fill:#f4ecde;}.cls-2{fill:#746e88;}</style></defs><g id="Calque_2-2"><rect class="cls-2" x="27.09" y="15.33" width="5.24" height="27.49"/><path class="cls-2" d="M30.5,23.37c-1.57,.65-9.01,3.57-17.13,0C2.19,18.46,.12,5.85,0,5.06,7.39-1.43,17.84-1.59,24.52,4.09c5.24,4.45,7.52,11.96,5.98,19.28Z"/><path class="cls-2" d="M43.75,24.04c-6.29,1.96-11.81,.76-14.43,0-.11-.46-2.54-11.57,4.92-18.6,6.63-6.25,18.2-6.54,26.63,.35-.38,1.29-4.5,14.32-17.12,18.25Z"/><path class="cls-1" d="M29.8,19.36L14.56,10.68l-2.15-1.22c-.67-.38-.65,.59-.19,.86l15.24,8.68,2.15,1.22c.67,.38,.65-.59,.19-.86h0Z"/><path class="cls-1" d="M38.53,18.84l10.38-6.74,1.48-.96c.82-.53-.25-1.87-1-1.38l-10.38,6.74-1.48,.96c-.82,.53,.25,1.87,1,1.38h0Z"/><path class="cls-1" d="M10.22,5.99l10.7,6.09,1.51,.86c.45,.26,1.97-.45,1.3-.83L13.03,6.02l-1.51-.86c-.45-.26-1.97,.45-1.3,.83h0Z"/></g></svg>